<svg width="80px" height="96px" viewBox="0 0 80 96" version="1.1" xmlns="http://www.w3.org/2000/svg" xmlns:xlink="http://www.w3.org/1999/xlink">
    <!-- Generator: Sketch 47.1 (45422) - http://www.bohemiancoding.com/sketch -->
    <desc>Created with Sketch.</desc>
    <defs></defs>
    <g id="Page" stroke="none" stroke-width="1" fill="none" fill-rule="evenodd">
        <g id="Messen-&amp;-Events-Page" transform="translate(-594.000000, -1326.000000)" fill-rule="nonzero" fill="#424242">
            <g id="Group-4" transform="translate(0.000000, 1158.000000)">
                <path d="M610,240 C610,242.2 611.8,244 614,244 L618,244 L618,258 C618,261.32 620.68,264 624,264 C627.32,264 630,261.32 630,258 L630,244 L638,244 L638,258 C638,261.32 640.68,264 644,264 C647.32,264 650,261.32 650,258 L650,244 L654,244 C656.2,244 658,242.2 658,240 L658,200 L610,200 L610,240 Z M600,200 C596.68,200 594,202.68 594,206 L594,234 C594,237.32 596.68,240 600,240 C603.32,240 606,237.32 606,234 L606,206 C606,202.68 603.32,200 600,200 Z M668,200 C664.68,200 662,202.68 662,206 L662,234 C662,237.32 664.68,240 668,240 C671.32,240 674,237.32 674,234 L674,206 C674,202.68 671.32,200 668,200 Z M648.12,176.64 L653.32,171.44 C654.12,170.64 654.12,169.4 653.32,168.6 C652.52,167.8 651.28,167.8 650.48,168.6 L644.56,174.52 C641.4,172.92 637.8,172 634,172 C630.16,172 626.56,172.92 623.36,174.52 L617.4,168.6 C616.6,167.8 615.36,167.8 614.56,168.6 C613.76,169.4 613.76,170.64 614.56,171.44 L619.8,176.68 C613.88,181.04 610,188.04 610,196 L658,196 C658,188.04 654.12,181 648.12,176.64 L648.12,176.64 Z M626,188 L622,188 L622,184 L626,184 L626,188 Z M646,188 L642,188 L642,184 L646,184 L646,188 Z" id="Shape"></path>
            </g>
        </g>
    </g>
</svg>
