<svg width="88px" height="48px" viewBox="0 0 88 48" version="1.1" xmlns="http://www.w3.org/2000/svg" xmlns:xlink="http://www.w3.org/1999/xlink">
    <!-- Generator: Sketch 47.1 (45422) - http://www.bohemiancoding.com/sketch -->
    <desc>Created with Sketch.</desc>
    <defs></defs>
    <g id="Page" stroke="none" stroke-width="1" fill="none" fill-rule="evenodd">
        <g id="Messen-&amp;-Events-Page" transform="translate(-257.000000, -1620.000000)" fill-rule="nonzero" fill="#424242">
            <g id="Group-4" transform="translate(0.000000, 1158.000000)">
                <path d="M337,462 L265,462 C260.6,462 257,465.6 257,470 L257,502 C257,506.4 260.6,510 265,510 L337,510 C341.4,510 345,506.4 345,502 L345,470 C345,465.6 341.4,462 337,462 Z M297,490 L285,490 L285,502 L277,502 L277,490 L265,490 L265,482 L277,482 L277,470 L285,470 L285,482 L297,482 L297,490 Z M315,498 C311.68,498 309,495.32 309,492 C309,488.68 311.68,486 315,486 C318.32,486 321,488.68 321,492 C321,495.32 318.32,498 315,498 Z M331,486 C327.68,486 325,483.32 325,480 C325,476.68 327.68,474 331,474 C334.32,474 337,476.68 337,480 C337,483.32 334.32,486 331,486 Z" id="Shape"></path>
            </g>
        </g>
    </g>
</svg>
