<svg width="56px" height="80px" viewBox="0 0 56 80" version="1.1" xmlns="http://www.w3.org/2000/svg" xmlns:xlink="http://www.w3.org/1999/xlink">
    <!-- Generator: Sketch 47.1 (45422) - http://www.bohemiancoding.com/sketch -->
    <desc>Created with Sketch.</desc>
    <defs></defs>
    <g id="Page" stroke="none" stroke-width="1" fill="none" fill-rule="evenodd">
        <g id="Messen-&amp;-Events-Page" transform="translate(-598.000000, -1591.000000)" fill-rule="nonzero" fill="#424242">
            <g id="Group-4" transform="translate(0.000000, 1158.000000)">
                <path d="M614,509 C614,511.2 615.8,513 618,513 L634,513 C636.2,513 638,511.2 638,509 L638,505 L614,505 L614,509 Z M626,433 C610.56,433 598,445.56 598,461 C598,470.52 602.76,478.88 610,483.96 L610,493 C610,495.2 611.8,497 614,497 L638,497 C640.2,497 642,495.2 642,493 L642,483.96 C649.24,478.88 654,470.52 654,461 C654,445.56 641.44,433 626,433 Z M637.4,477.4 L634,479.8 L634,489 L618,489 L618,479.8 L614.6,477.4 C609.2,473.64 606,467.52 606,461 C606,449.96 614.96,441 626,441 C637.04,441 646,449.96 646,461 C646,467.52 642.8,473.64 637.4,477.4 Z" id="Shape"></path>
            </g>
        </g>
    </g>
</svg>
