<svg width="72px" height="72px" viewBox="0 0 72 72" version="1.1" xmlns="http://www.w3.org/2000/svg" xmlns:xlink="http://www.w3.org/1999/xlink">
    <!-- Generator: Sketch 47.1 (45422) - http://www.bohemiancoding.com/sketch -->
    <desc>Created with Sketch.</desc>
    <defs></defs>
    <g id="Page" stroke="none" stroke-width="1" fill="none" fill-rule="evenodd">
        <g id="Messen-&amp;-Events-Page" transform="translate(-957.000000, -1338.000000)" fill-rule="nonzero" fill="#424242">
            <g id="Group-4" transform="translate(0.000000, 1158.000000)">
                <path d="M1027,180 L1026.36,180.12 L1005,188.4 L981,180 L958.44,187.6 C957.6,187.88 957,188.6 957,189.52 L957,250 C957,251.12 957.88,252 959,252 L959.64,251.88 L981,243.6 L1005,252 L1027.56,244.4 C1028.4,244.12 1029,243.4 1029,242.48 L1029,182 C1029,180.88 1028.12,180 1027,180 Z M1005,244 L981,235.56 L981,188 L1005,196.44 L1005,244 Z" id="Shape"></path>
            </g>
        </g>
    </g>
</svg>
