<svg width="80px" height="64px" viewBox="0 0 80 64" version="1.1" xmlns="http://www.w3.org/2000/svg" xmlns:xlink="http://www.w3.org/1999/xlink">
    <!-- Generator: Sketch 47.1 (45422) - http://www.bohemiancoding.com/sketch -->
    <desc>Created with Sketch.</desc>
    <defs></defs>
    <g id="Page" stroke="none" stroke-width="1" fill="none" fill-rule="evenodd">
        <g id="Messen-&amp;-Events-Page" transform="translate(-280.000000, -1342.000000)" fill-rule="nonzero" fill="#424242">
            <g id="Group-4" transform="translate(0.000000, 1158.000000)">
                <path d="M352,184 L288,184 C283.6,184 280.04,187.6 280.04,192 L280,240 C280,244.4 283.6,248 288,248 L352,248 C356.4,248 360,244.4 360,240 L360,192 C360,187.6 356.4,184 352,184 Z M332,240 L288,240 L288,224 L332,224 L332,240 Z M332,220 L288,220 L288,204 L332,204 L332,220 Z M352,240 L336,240 L336,204 L352,204 L352,240 Z" id="Shape"></path>
            </g>
        </g>
    </g>
</svg>
