<?xml version="1.0" encoding="UTF-8"?>
<svg width="301px" height="207px" viewBox="0 0 301 207" version="1.1" xmlns="http://www.w3.org/2000/svg" xmlns:xlink="http://www.w3.org/1999/xlink">
    <title>annotated</title>
    <defs>
        <path d="M84,38 C77.3657143,38 72,43.3657143 72,50 C72,59 84,72.2857143 84,72.2857143 C84,72.2857143 96,59 96,50 C96,43.3657143 90.6342857,38 84,38 Z M75.4285714,50 C75.4285714,45.2685714 79.2685714,41.4285714 84,41.4285714 C88.7314286,41.4285714 92.5714286,45.2685714 92.5714286,50 C92.5714286,54.9371429 87.6342857,62.3257143 84,66.9371429 C80.4342857,62.36 75.4285714,54.8857143 75.4285714,50 Z M84,45.7142857 C81.6330654,45.7142857 79.7142857,47.6330654 79.7142857,50 C79.7142857,52.3669346 81.6330654,54.2857143 84,54.2857143 C85.5311383,54.2857143 86.9459684,53.4688618 87.7115375,52.1428572 C88.4771067,50.8168525 88.4771067,49.1831475 87.7115375,47.8571428 C86.9459684,46.5311382 85.5311383,45.7142857 84,45.7142857 L84,45.7142857 Z" id="path-1"></path>
        <path d="M120,133 C113.365714,133 108,138.365714 108,145 C108,154 120,167.285714 120,167.285714 C120,167.285714 132,154 132,145 C132,138.365714 126.634286,133 120,133 Z M111.428571,145 C111.428571,140.268571 115.268571,136.428571 120,136.428571 C124.731429,136.428571 128.571429,140.268571 128.571429,145 C128.571429,149.937143 123.634286,157.325714 120,161.937143 C116.434286,157.36 111.428571,149.885714 111.428571,145 Z M120,140.714286 C117.633065,140.714286 115.714286,142.633065 115.714286,145 C115.714286,147.366935 117.633065,149.285714 120,149.285714 C121.531138,149.285714 122.945968,148.468862 123.711538,147.142857 C124.477107,145.816853 124.477107,144.183147 123.711538,142.857143 C122.945968,141.531138 121.531138,140.714286 120,140.714286 L120,140.714286 Z" id="path-3"></path>
        <path d="M230,83 C223.365714,83 218,88.3657143 218,95 C218,104 230,117.285714 230,117.285714 C230,117.285714 242,104 242,95 C242,88.3657143 236.634286,83 230,83 Z M221.428571,95 C221.428571,90.2685714 225.268571,86.4285714 230,86.4285714 C234.731429,86.4285714 238.571429,90.2685714 238.571429,95 C238.571429,99.9371429 233.634286,107.325714 230,111.937143 C226.434286,107.36 221.428571,99.8857143 221.428571,95 Z M230,90.7142857 C227.633065,90.7142857 225.714286,92.6330654 225.714286,95 C225.714286,97.3669346 227.633065,99.2857143 230,99.2857143 C231.531138,99.2857143 232.945968,98.4688618 233.711538,97.1428572 C234.477107,95.8168525 234.477107,94.1831475 233.711538,92.8571428 C232.945968,91.5311382 231.531138,90.7142857 230,90.7142857 L230,90.7142857 Z" id="path-5"></path>
    </defs>
    <g id="Page-1" stroke="none" stroke-width="1" fill="none" fill-rule="evenodd">
        <g id="Annotated">
            <rect id="Background" stroke-opacity="0.6" stroke="#000000" stroke-width="3" stroke-linejoin="round" x="8.5" y="8.5" width="284" height="190" rx="5"></rect>
            <mask id="mask-2" fill="white">
                <use xlink:href="#path-1"></use>
            </mask>
            <use id="location" fill-opacity="0.6" fill="#000000" fill-rule="nonzero" xlink:href="#path-1"></use>
            <mask id="mask-4" fill="white">
                <use xlink:href="#path-3"></use>
            </mask>
            <use id="location-copy" fill-opacity="0.6" fill="#000000" fill-rule="nonzero" xlink:href="#path-3"></use>
            <mask id="mask-6" fill="white">
                <use xlink:href="#path-5"></use>
            </mask>
            <use id="location-copy-2" fill-opacity="0.6" fill="#000000" fill-rule="nonzero" xlink:href="#path-5"></use>
        </g>
    </g>
</svg>