<?xml version="1.0" encoding="UTF-8"?>
<svg width="301px" height="207px" viewBox="0 0 301 207" version="1.1" xmlns="http://www.w3.org/2000/svg" xmlns:xlink="http://www.w3.org/1999/xlink">
    <title>world</title>
    <defs>
        <path d="M39,35 C32.3657143,35 27,40.3657143 27,47 C27,56 39,69.2857143 39,69.2857143 C39,69.2857143 51,56 51,47 C51,40.3657143 45.6342857,35 39,35 Z M30.4285714,47 C30.4285714,42.2685714 34.2685714,38.4285714 39,38.4285714 C43.7314286,38.4285714 47.5714286,42.2685714 47.5714286,47 C47.5714286,51.9371429 42.6342857,59.3257143 39,63.9371429 C35.4342857,59.36 30.4285714,51.8857143 30.4285714,47 Z M39,42.7142857 C36.6330654,42.7142857 34.7142857,44.6330654 34.7142857,47 C34.7142857,49.3669346 36.6330654,51.2857143 39,51.2857143 C40.5311383,51.2857143 41.9459684,50.4688618 42.7115375,49.1428572 C43.4771067,47.8168525 43.4771067,46.1831475 42.7115375,44.8571428 C41.9459684,43.5311382 40.5311383,42.7142857 39,42.7142857 L39,42.7142857 Z" id="path-1"></path>
        <path d="M142,25 C135.365714,25 130,30.3657143 130,37 C130,46 142,59.2857143 142,59.2857143 C142,59.2857143 154,46 154,37 C154,30.3657143 148.634286,25 142,25 Z M133.428571,37 C133.428571,32.2685714 137.268571,28.4285714 142,28.4285714 C146.731429,28.4285714 150.571429,32.2685714 150.571429,37 C150.571429,41.9371429 145.634286,49.3257143 142,53.9371429 C138.434286,49.36 133.428571,41.8857143 133.428571,37 Z M142,32.7142857 C139.633065,32.7142857 137.714286,34.6330654 137.714286,37 C137.714286,39.3669346 139.633065,41.2857143 142,41.2857143 C143.531138,41.2857143 144.945968,40.4688618 145.711538,39.1428572 C146.477107,37.8168525 146.477107,36.1831475 145.711538,34.8571428 C144.945968,33.5311382 143.531138,32.7142857 142,32.7142857 L142,32.7142857 Z" id="path-3"></path>
        <path d="M234,46 C227.365714,46 222,51.3657143 222,58 C222,67 234,80.2857143 234,80.2857143 C234,80.2857143 246,67 246,58 C246,51.3657143 240.634286,46 234,46 Z M225.428571,58 C225.428571,53.2685714 229.268571,49.4285714 234,49.4285714 C238.731429,49.4285714 242.571429,53.2685714 242.571429,58 C242.571429,62.9371429 237.634286,70.3257143 234,74.9371429 C230.434286,70.36 225.428571,62.8857143 225.428571,58 Z M234,53.7142857 C231.633065,53.7142857 229.714286,55.6330654 229.714286,58 C229.714286,60.3669346 231.633065,62.2857143 234,62.2857143 C235.531138,62.2857143 236.945968,61.4688618 237.711538,60.1428572 C238.477107,58.8168525 238.477107,57.1831475 237.711538,55.8571428 C236.945968,54.5311382 235.531138,53.7142857 234,53.7142857 L234,53.7142857 Z" id="path-5"></path>
    </defs>
    <g id="Page-1" stroke="none" stroke-width="1" fill="none" fill-rule="evenodd">
        <g id="World">
            <rect id="Background" stroke-opacity="0.6" stroke="#000000" stroke-width="3" stroke-linejoin="round" x="8.5" y="13.5" width="284" height="180" rx="5"></rect>
            <path d="M124.398669,25.0001093 C124.167837,24.9995493 123.924877,25.0011704 123.681874,25.0043091 C123.050122,25.0122856 122.418484,25.0354076 121.811048,25.0724323 C120.705476,25.1403199 119.065382,25.2257936 118.166285,25.2612782 C115.044269,25.2094038 110.490763,26.0133147 107.814892,26.0287454 C106.302399,25.167223 103.989827,25.3998543 102.59068,25.3900525 C98.9696071,25.2542939 95.6745248,25.8357416 92.3343315,26.036791 C89.1396848,26.3420876 89.6459767,26.2288041 88.3397464,26.6154122 C86.7757597,27.2486112 85.0941726,26.861823 86.3350063,28.6725885 C88.7759604,29.2625276 87.7833785,29.433376 87.371479,29.8899026 C85.9032466,30.3825141 85.318649,29.9746678 84.2088923,29.958314 C83.6929965,29.489569 81.8716365,30.1785167 82.3526777,30.2032088 C82.4338362,31.2858645 81.2477441,31.3552726 81.4218609,30.2354016 C80.3367166,30.4962225 79.9244057,30.5296807 77.6336794,30.175327 C77.3493814,30.2905228 76.9425463,30.7297964 77.1211458,30.7297964 C77.6673708,31.2525489 79.041764,31.6746415 79.3991048,31.6616876 C81.0334531,30.8981682 80.8031322,32.1333896 81.0499087,32.144017 C82.5503429,32.1629856 83.4538378,30.7402887 84.1978841,30.8140198 C84.3829239,31.1415019 83.0921278,31.7631129 83.5212914,31.9028448 C84.462861,32.0986555 88.4999469,32.1926207 88.6930159,32.0232823 C89.3333922,31.9935257 91.750202,32.167807 91.8021221,31.2601231 C89.5729623,31.2342842 84.9028484,31.851263 86.1672306,30.7297904 C88.500798,29.9405882 90.5119218,30.8766207 92.3597667,30.9867686 C92.4727993,30.6270442 94.0816416,30.2755305 94.1105806,29.9942354 C94.8252055,29.0946767 96.5315327,29.0815876 97.0798147,28.8131415 C98.0676868,28.1450432 99.017314,27.9102354 99.8132804,27.8286539 C101.354854,27.3772459 102.308708,27.1749806 103.951284,27.6398079 C103.951284,27.8929735 103.380333,28.0674995 102.250404,28.1661179 C101.502585,28.3140484 97.3487778,28.3389027 97.6871097,29.5886692 C100.752807,31.8204166 100.376883,29.9970123 103.999942,30.8703779 C106.985631,31.4869004 103.639976,33.5330741 104.473904,34.7721833 C103.919735,36.2343321 103.548946,37.9803577 103.344003,38.9147556 C103.873333,39.3752599 103.09307,40.1447985 103.429019,41.8360811 C103.219012,42.6534279 104.414224,44.2167318 104.558934,44.9977233 C105.83875,44.8982764 107.292541,46.4201095 108.045667,45.8862043 C108.38536,45.383866 108.681376,44.9187235 109.10278,44.4627974 C109.66434,43.5778138 110.188108,42.8002447 111.143977,42.3541353 C111.238462,41.5049666 112.503972,40.9213169 112.626112,40.4860901 C113.512726,39.8170462 114.320183,40.8002129 114.885913,40.108098 C116.100787,40.1158584 117.439644,38.4791686 118.312072,38.2438054 C119.731364,37.4956116 121.803912,37.9545398 123.730488,37.0262061 C124.965151,36.6667669 125.96972,35.7497211 126.609784,35.0900136 C125.574177,33.7720548 126.000078,34.0361329 128.541751,32.393544 C129.202257,32.1228613 129.874807,31.8579877 130.376261,31.6260769 C129.319985,30.466658 130.458284,30.1442794 130.412648,29.8620538 C130.1152,27.0321416 130.251256,27.7706537 134.336872,26.6234082 C135.551816,26.3931335 135.260085,26.2092711 133.547033,26.1292956 C131.567402,26.2186961 129.531879,25.7389499 128.006903,25.2655367 C127.508782,25.1028989 126.038621,25.0057816 124.398598,25.0005129 L124.398669,25.0001093 Z M174.481948,26.0003292 C174.220404,25.9956089 173.81101,26.0664364 173.238321,26.2542104 C172.657742,26.2108965 171.582045,26.8461613 171.174308,26.8004631 C170.828561,26.9141878 171.5067,26.9635898 171.660768,26.9751643 C172.607419,26.7893095 171.862686,26.713423 172.633686,26.8738117 C173.260212,26.8978256 175.617102,27.2540547 177.077339,26.6513606 C176.427616,26.391366 175.474025,26.3189833 174.789654,26.3047888 C174.909826,26.1372428 174.818116,26.0063985 174.481902,26.0003271 L174.481948,26.0003292 Z M194.27977,26.0007513 C193.033372,26.0204533 191.621385,26.4914129 192.218682,27.1408553 C193.449842,27.3073349 198.540433,28.4172135 199.077339,27.8303637 C197.916366,27.0233835 195.492068,27.0851225 195.874603,26.5112886 C195.715765,26.1395517 195.027682,25.9889337 194.279869,26.0007513 L194.27977,26.0007513 Z M171.10631,26.0003813 C171.009511,25.9983663 170.922562,26.0075236 170.852665,26.0286387 C169.960796,26.7554946 169.60268,26.0681176 168.165859,26.2920463 C167.462533,26.7184853 171.157936,26.9674759 171.924852,27.0001093 C172.422469,26.5092686 171.492791,26.696283 172.063963,26.296592 C171.777434,26.1128341 171.396723,26.0064195 171.10631,26.0003813 Z M152.896467,27.0001093 C152.273365,27.002418 151.746557,27.0955149 151.453337,27.3623172 C147.700735,27.3931026 147.042485,27.6371945 147.078717,27.9772527 C147.73955,29.4592078 147.439069,29.0433075 150.232464,30.6933065 C150.982762,31.1437641 151.275359,31.1038762 151.377103,30.5359643 C152.034061,28.8043146 154.31287,29.4069528 153.64081,29.8911037 C153.218851,30.6416213 155.659215,30.3053313 155.95545,29.7485458 C154.994447,29.3216901 151.722339,28.7593993 153.882253,28.2430623 C153.694266,28.6280266 157.856251,28.0483653 156.947353,27.4165739 C156.104517,27.4290458 154.267284,26.9950856 152.896586,27.0001589 L152.896467,27.0001093 Z M199.494137,29.0003549 C199.334736,28.9986084 199.21235,29.0061065 199.142566,29.0251102 C199.108454,29.3563956 199.006608,29.7071844 199.157989,30.0001093 C199.499853,30.0001093 202.716526,29.7728921 203.01174,29.7273219 C203.551889,29.4852129 200.61156,29.0126051 199.49421,29.0003487 L199.494137,29.0003549 Z M200.968252,30.0001093 C200.775743,29.9984804 200.595147,30.0098047 200.462808,30.0384745 C200.005579,30.1388671 199.765009,30.5210699 199.981584,30.7818776 C199.971328,30.9225848 198.28113,31.3133478 198.11676,31.1822034 C198.237087,30.9744715 195.914908,31.1545348 195.698277,31.3687306 C194.687094,31.6965987 193.587461,31.8121778 192.569914,32.1770295 C192.519746,32.7218291 191.899693,32.1195191 191.739846,32.5010098 C191.677723,32.8355711 192.54929,32.6807441 192.954834,33.0003383 C192.156053,33.3682233 190.309886,33.1748319 189.357384,33.320502 C190.030387,34.142045 192.06232,34.8149414 191.691716,34.8459866 C190.365449,34.8082311 186.528961,33.1098792 186.000449,33.7207993 C186.311473,34.5001892 187.695986,33.7399377 186.108834,35.1312317 C186.831246,35.6066212 187.337674,36.312642 187.696899,37.163692 C187.982453,37.4456759 189.794088,37.0946593 188.984265,37.3235033 C188.335777,37.7684743 188.792486,38.2495601 188.779843,38.9616333 C188.608856,39.3020476 187.939534,39.7434868 187.672988,39.6897559 C186.730335,39.4476892 187.447057,39.4364389 187.636911,39.0115334 C188.082802,38.3645554 188.134797,37.7934813 187.48038,37.4977264 C186.937089,37.2015585 186.544822,36.5383601 186.409547,35.9206898 C185.109747,34.8840382 185.621021,34.4148578 185.483148,34.2124947 C185.205897,33.9268081 183.601465,33.8013316 184.087382,33.7742596 C185.067601,33.6591306 183.101725,33.1671134 183.148873,33.549282 C183.029599,34.0154861 182.729814,35.044291 182.523214,35.1656234 C181.70152,35.8114195 182.757293,35.7031175 182.763952,36.3049946 C182.727046,37.0283608 184.940376,37.2648166 184.628776,37.784481 C182.937313,37.4485384 181.029079,36.6693051 179.274537,36.5537545 C178.751617,36.6714555 177.5443,35.7259456 177.204884,36.0609769 C177.137323,36.7875758 178.510668,36.7936993 178.997638,37.2428856 C179.246805,37.5231606 178.530406,37.9074939 178.323834,37.6857632 C177.89806,37.1256546 177.256119,37.6090945 176.230298,37.6358588 C176.056501,38.0161903 174.498796,38.0146951 174.906854,37.3844216 C174.532063,37.0901762 173.686332,37.6382228 173.246439,37.6893049 C172.644846,37.6885928 172.211457,38.2504388 171.63407,38.2797181 C170.986608,38.353174 171.381742,39.5613273 169.648989,39.0689342 C168.973865,38.700565 169.661071,38.4770826 170.166234,38.3372655 C169.459501,37.5311028 167.041945,37.2872417 167.844125,37.8491162 C168.518603,38.0505109 167.981971,38.8589095 168.505819,39.1068292 C169.415037,39.8778881 167.873501,39.9446779 167.60364,39.4278047 C167.268747,39.3761501 167.051189,39.8344676 166.640953,39.9838546 C166.279396,40.0995263 166.059449,40.3117512 165.762699,40.5524508 C166.995626,41.8947262 165.819329,41.1472929 163.93384,40.8415267 C163.291786,41.4642809 164.624193,41.467357 164.884178,41.7526306 C165.004491,42.0649049 164.270615,42.0221822 163.644956,41.6806343 C163.06098,41.5898856 162.854633,41.2023539 162.550156,40.9023267 C162.262059,39.7089399 162.008958,40.0916211 161.431149,39.5715152 C161.38306,39.4556342 161.59948,39.4667763 162.345466,39.6216944 C164.860183,40.1425551 165.557841,40.141245 166.303827,39.6069679 C167.315136,39.0507186 165.521553,37.8907979 165.22115,38.0857557 C164.620371,37.8837771 163.872363,37.6044704 163.392291,37.3952717 C162.563193,36.9243966 161.320951,37.2790959 160.624979,36.7514124 C159.959183,36.3414883 159.070069,36.5891517 158.399103,36.5073378 C158.674809,36.4304312 158.998055,36.2726478 159.132895,36.09992 C158.68779,36.0278625 157.32848,35.4739758 156.967288,35.4705153 C155.8836,35.657484 155.709958,35.157415 155.270768,35.4705153 C154.808018,35.6944106 152.996144,35.5609179 153.104881,35.9583798 C152.749139,36.2598595 151.985888,36.3882412 151.949867,36.354889 C151.661082,36.0791995 150.879019,36.1986379 150.879019,36.5182463 C150.879019,36.6951182 150.866937,36.7050583 150.433844,36.7514124 C149.730047,37.2565369 148.058912,37.2939193 148.195887,37.7577025 C148.20995,38.0870658 147.220781,37.8307739 147.149273,38.2687512 C147.467294,38.4901543 147.692705,38.1806784 148.111707,38.0895865 C148.761024,38.3556206 147.393875,39.6716074 147.028764,39.7741418 C146.452669,40.3457143 145.878007,41.2718566 145.837673,41.2879488 C144.784484,42.2103315 144.292738,41.9843712 144.105188,42.1906078 C143.421045,42.9040196 142.554493,43.116921 141.891114,43.5178733 C141.53016,43.7398889 141.518233,43.7763313 141.506193,44.6692353 C141.611025,45.4283889 141.715308,46.5652679 141.746918,46.5711067 C142.261788,47.3755036 143.339056,47.8890017 144.153319,47.3676853 C144.381905,47.2030036 144.790933,46.951481 145.07969,46.8075482 C145.356435,46.6636155 145.596963,46.4527649 145.596963,46.3417713 C145.646105,46.0466573 146.062115,46.9387496 146.06633,47.0358013 C146.200368,47.6202618 146.604381,48.2264254 146.96879,48.6215248 C147.296897,48.9427281 147.304736,49.2187024 147.052984,49.4838251 C146.212548,49.4309572 145.922977,49.8024651 145.825591,49.4374653 C146.235883,48.9935197 145.133019,48.8948018 145.573024,48.5874406 C145.717402,48.5008304 145.70525,47.790862 145.560942,47.790862 C145.311774,48.0290837 144.88593,48.3943199 144.490094,48.4006286 C143.840384,48.4006286 143.395237,49.6998538 143.876531,50.2073708 C144.130827,50.5370332 143.822992,50.6310516 143.86459,50.9087633 C144.194762,51.2576367 144.200354,51.9574057 143.527548,51.8626895 C143.008238,51.731256 142.616897,52.1588147 142.143864,52.0944885 C141.578376,52.0103177 141.060878,52.3321406 140.96463,52.8261572 C140.844317,53.4751004 140.050285,54.2070397 139.147853,54.5071522 C138.61847,54.6840241 138.534346,54.7560546 138.450096,55.1512821 C138.328659,55.8858132 137.577869,55.5628297 137.259034,56.0893867 C136.712118,56.6216401 135.700612,55.2447878 135.658607,56.1087501 C135.9113,56.9333548 135.887235,57.0029358 135.393929,57.0005006 C134.745736,56.9331426 134.03875,56.7707665 133.432731,57.0689509 C133.074588,57.4871347 133.39022,57.9480982 133.709519,57.9691462 C135.35448,58.0652196 136.19965,60.2623573 135.69488,61.9103135 C135.562527,62.3567655 135.225626,62.5983765 134.888724,62.4898182 C133.431172,62.0998598 132.150493,62.6187211 130.833709,62.1505717 C130.327604,61.9792679 129.031542,62.6802759 129.209539,63.1912107 C129.269695,63.3583276 129.341934,63.873022 129.353959,64.3341136 C129.347918,65.395345 129.085236,66.0004406 128.644107,66.6982444 C128.545878,67.9141176 129.124277,68.076122 128.932723,68.8937629 C129.148174,69.8008794 130.589346,68.4239701 131.086529,69.5916237 C131.75432,70.7231624 131.597115,69.9651481 131.146531,71.0590054 C130.737433,72.0690123 130.460674,72.3947157 129.714688,72.7558078 C128.468133,73.2979017 128.523639,73.8825901 127.994285,74.641587 C127.089155,76.7633377 128.301178,77.5618246 125.07047,78.6525346 C124.752815,78.8110358 122.98157,81.2608967 122.965133,81.6140709 C122.114695,83.0571006 121.09202,84.4383249 120.715094,86.078591 C120.75634,86.5412349 121.186821,86.0662584 121.340766,88.0755915 C121.548336,89.838899 120.806326,91.7064498 120.077339,92.6805269 C121.372643,93.6051027 120.201768,94.6735399 121.040026,95.5359685 C122.069444,96.5991081 122.344461,96.864359 123.205632,97.7925805 C123.642209,98.2709748 124.167715,99.7025691 124.228321,100.151727 C125.3337,100.958958 126.323262,101.729333 127.04382,102.385126 C128.499686,103.720837 128.860738,103.835419 129.955553,103.29623 C130.593251,102.983956 130.906003,102.910758 131.820376,102.865628 C132.831054,102.815617 133.372617,102.898584 133.938077,103.185237 C134.891801,103.290195 135.688685,102.243401 136.657202,102.194768 C137.487859,101.76401 138.375076,101.586169 139.171637,101.558001 C140.096786,101.456812 140.960598,102.102715 141.012578,103.098723 C141.441078,104.16867 142.798168,103.601868 143.743926,103.495232 C144.909546,103.616965 145.192346,105.612426 144.73058,106.609289 C144.605336,106.922773 144.65452,109.125797 144.117003,108.828305 C143.734906,110.384122 147.034214,112.675624 147.148992,114.129477 C148.036378,115.566241 147.957776,117.990326 148.231936,118.689411 C148.496627,119.366423 148.616772,119.879808 148.604746,120.24822 C147.757919,121.496348 147.732533,123.700212 146.811992,124.88363 C146.283017,127.193931 147.600742,128.597656 148.292022,130.311832 C149.311452,132.124555 149.242697,133.857102 149.615704,135.912063 C149.845892,137.664832 153.237318,141.585635 152.05807,142.845385 C152.235997,144.36147 152.663709,144.022651 153.345464,144.766624 C153.610156,145.071578 153.85081,145.071535 154.151607,144.803166 C155.089863,143.99303 157.151144,144.301345 158.158154,144.278759 C159.458628,143.915431 160.928276,143.296821 161.888223,142.224795 C163.264658,141.690975 163.517029,138.886302 164.836061,138.667562 C166.219773,136.496538 165.378439,135.266125 166.821142,134.656899 C168.700998,133.286199 167.624783,131.158054 167.603092,129.716591 C167.830302,129.112948 170.526766,126.632298 170.936145,126.46212 C171.98193,126.070011 172.84452,125.177221 173.23409,124.125047 C173.38753,123.096754 173.127137,122.026366 173.137786,121.044884 C173.260052,118.174347 172.652853,119.179042 172.379761,117.972268 C172.386645,116.393096 172.076084,115.723489 171.694142,114.637051 C171.91968,112.361784 173.69847,111.09705 174.533524,109.621124 C175.05091,108.589157 176.675248,106.813247 177.67397,106.182517 C178.323694,105.77144 180.224651,103.651341 180.236592,103.330494 C181.155208,101.560208 182.602954,99.8206831 182.642993,97.8411989 C183.227278,97.1521817 182.999015,94.9524336 182.185989,95.714891 C181.097538,96.5167246 178.491885,96.3901515 177.529549,96.9641592 C175.029022,97.8690398 175.693384,95.0491862 175.27951,94.6050128 C173.428313,92.2007227 172.112653,92.3321661 171.814399,91.0369569 C171.436419,88.8488436 169.909537,88.5952133 169.841119,86.7067284 C169.23777,84.148779 168.451113,83.549095 167.506788,81.7480492 C167.58289,81.1514697 165.337529,77.9040048 165.317299,77.5237729 C165.462577,77.0473296 166.193319,78.9175434 166.700969,79.0182123 C166.932168,78.9080205 167.108971,78.6583449 167.374506,78.6522356 C167.816773,78.9652077 168.217919,79.6497247 168.505594,80.2000783 C168.864398,80.6339271 169.796908,82.6540691 169.985624,82.6775666 C170.4824,82.8855548 171.132658,84.211026 171.044362,84.7511831 C170.717519,85.9424908 173.132139,87.4838682 173.137899,88.0593427 C173.179989,88.4688965 174.791149,90.3820324 173.583074,90.20986 C174.394934,91.7669593 175.265967,91.8660759 175.484284,94.02172 C175.814273,96.167253 177.455456,94.1585123 178.263397,94.1436192 C181.266727,94.0439572 183.224272,90.3732002 185.699231,90.3622347 C188.945463,88.1929194 189.978182,87.3339087 190.102794,84.5754476 C189.134769,83.2446788 186.740801,82.8685341 186.709753,81.0842925 C186.709753,80.3243415 186.565389,80.1804942 186.312723,80.6915999 C183.472358,84.9838052 182.067629,82.8377026 182.245907,80.6986919 C180.100249,80.6029817 180.544329,79.7501772 179.65912,78.6519906 C178.101823,76.9183043 179.584185,76.7355936 180.332924,76.5245435 C181.221335,76.9658261 181.385705,78.5699631 182.402578,78.9459227 C184.164565,79.87272 184.211909,80.3543755 185.73535,80.1619241 C186.311346,80.0932858 186.619631,79.3471456 186.938536,79.78014 C187.347733,81.0014817 187.907292,81.2804181 188.887652,81.3964814 C190.821315,81.6632988 192.981723,81.8266846 194.759445,81.5598387 C196.151825,81.0274856 196.393027,83.1291852 197.05739,83.1652146 C198.742812,84.2576478 197.848191,84.0921259 198.16454,84.6361565 C198.16454,84.8679271 199.824814,86.4574244 200.065469,86.4513008 C202.08539,85.5946968 201.380061,85.9157151 201.870024,87.6591137 C202.298495,89.0840576 202.533909,90.5537178 203.157685,91.8453668 C203.571784,92.6340418 204.010089,93.4847785 204.216423,94.312032 C204.530186,95.644823 205.790438,96.7536332 205.864756,98.1348575 C205.864756,98.4520164 206.514354,99.4632765 206.82719,99.6328571 C207.902182,99.7749983 207.601554,98.2890579 208.656049,98.6033971 C209.167422,98.6035367 208.369512,98.4209713 208.560026,97.77274 C209.718777,97.4793064 208.789006,95.9480543 209.209624,95.3328477 C209.402119,95.1023019 209.414103,94.1058808 209.245659,93.1678047 C209.005019,91.8613736 209.065119,91.5150066 209.546385,91.6357694 C209.723778,91.6049008 210.91345,90.5898896 210.91824,90.4647692 C211.204525,89.6087063 212.273602,89.0778058 212.819169,88.2847732 C213.188987,87.6458982 213.874746,87.4548281 214.383351,86.9880544 C214.876685,86.4934681 214.406321,86.0527409 214.768257,85.6084393 C215.50483,85.1187519 216.032598,85.5873329 216.741537,85.3572727 C217.817541,85.035699 218.00672,85.0398004 218.245731,84.3278127 C218.525258,84.5557809 218.851581,85.0312274 218.859308,85.2536559 C218.544237,85.8798565 220.787772,87.587596 220.748155,87.712631 C220.695247,89.1647749 221.087318,87.8461494 221.614566,89.0314375 C221.921319,89.9604279 221.787028,90.4475946 221.722966,91.4257589 C222.501221,91.7512345 224.125152,91.1380074 224.153249,90.327843 C224.165331,89.9460446 224.959518,91.6393011 225.067805,92.252927 C225.137178,92.7596749 226.554719,96.1572103 225.597174,95.7905073 C225.772783,96.4112109 227.118227,96.6448897 225.717417,96.6822579 C226.159038,97.2357444 226.179619,97.9824514 226.042363,98.5960915 C225.92205,99.1096324 226.078286,100.175834 226.234676,100.006253 C226.753199,99.729866 227.066274,100.405767 227.401813,100.856278 C227.660028,102.328644 228.086336,100.994466 228.099837,102.427618 C228.018664,103.273456 229.05623,104.674974 229.086477,105.057342 C229.086477,105.252513 229.314923,105.48689 229.952635,105.922362 C230.278762,106.875519 231.724457,106.83311 231.733307,107.443574 C231.845303,107.812442 232.720537,106.987339 231.87777,106.937154 C231.905938,106.942537 231.786144,106.464071 231.769637,106.266294 C230.884921,105.116128 231.352293,104.108941 230.97531,102.987613 C230.887716,102.792356 229.156847,100.844358 228.965925,100.890784 C228.363053,100.294005 227.776956,98.0702323 227.606475,97.8494985 C226.661644,99.2415458 227.046901,96.8393491 227.209445,96.2173496 C227.476707,95.6525273 227.249483,94.1114063 227.786958,94.0450437 C228.468559,94.1617621 227.903268,94.9793176 228.544956,94.9744329 C229.230083,95.1223388 230.113493,95.7652155 230.289663,96.5528936 C230.289663,96.7407594 230.722742,97.1934774 230.903226,97.1934774 C230.657528,97.4207051 232.501546,97.4741227 232.118508,97.7923355 C231.90192,97.9265118 231.950149,99.2671224 232.178777,99.2671224 C232.924187,99.0580946 233.859704,97.3834795 234.007636,97.2847901 C234.724513,97.2240099 235.065012,96.5476244 235.667771,96.3395935 C236.290746,95.5141058 235.880946,94.5938023 235.788266,93.8118349 C235.721353,93.1650847 234.947368,91.2168592 234.3925,91.0367119 C234.115755,90.9476707 232.69598,89.5755962 232.69598,89.3974427 C232.350214,88.8633237 231.880804,88.3952825 231.877742,87.854157 C231.88013,87.0408738 233.594352,85.2680107 234.344271,85.5438569 C234.577508,85.6469154 235.147702,85.524156 235.054152,85.7914775 C235.012694,85.9063574 235.04783,86.1013878 235.120869,86.2987097 C234.420724,86.4419446 234.22858,87.7225 234.782197,88.041083 C236.070364,88.502431 236.038839,87.4579042 236.478718,86.6846379 C236.616016,86.1857367 236.23354,86.1672947 235.849013,86.2174938 C235.832717,85.9752278 235.873949,85.7562171 236.365738,85.6696324 C236.781256,85.1783074 238.550591,85.4731651 238.411088,84.5070913 C238.243079,83.9315883 239.032335,85.3741908 239.072781,84.7620745 C239.475965,84.2117352 240.822125,84.3228569 241.033979,83.7825147 C241.235044,83.2712096 242.887142,82.4740471 242.610243,81.9112612 C243.000951,81.6743782 243.631232,79.6372753 243.645027,79.326539 C243.970606,77.7851047 244.629981,77.2722901 244.222541,75.9683939 C243.510694,76.6847109 243.85566,75.6587115 243.404289,74.7215752 C243.00303,74.0936515 242.416862,73.993951 242.080874,73.3956768 C241.59958,72.5381329 241.070169,71.9806162 240.516692,71.7098398 C239.975241,71.4524642 239.92697,71.391684 239.99918,71.1123489 C240.049236,69.9340716 241.955742,69.555392 241.960659,69.0837336 C242.433637,68.8539995 239.432737,68.13623 239.602164,68.5129586 C239.523534,69.1179972 238.875032,69.0696066 238.711814,68.5615001 C238.578703,67.6133841 237.063481,68.0917642 237.027375,67.2320557 C237.382639,66.6336534 238.330561,66.6767321 238.832211,65.6231196 C239.124846,64.7912947 240.198264,65.3174103 239.914902,65.9389114 C239.797258,66.1903771 240.030298,67.4289361 240.047241,67.4295057 C240.107425,67.4295057 240.360049,67.2028619 240.624741,66.9271867 C241.22056,66.3067821 242.273215,66.1370449 243.043223,66.579481 C243.322329,66.6340436 243.270826,68.348912 243.404205,68.1615019 C243.635193,67.8673847 245.871999,69.0222215 245.209041,69.1375158 C245.004492,69.1375158 245.07666,69.3496196 245.425587,69.7240982 C245.930933,70.2876673 246.039262,70.4474074 245.967052,70.5291216 C245.677537,71.0098088 246.1056,71.3313397 246.111234,71.7222095 C246.111234,71.9783747 246.159407,71.9991094 246.652699,71.9698301 C247.242407,71.8424966 248.54843,71.4572719 248.577791,70.803743 C248.577791,70.317032 247.867939,69.0484105 247.290411,68.5007057 C246.791921,67.64873 245.673687,67.360295 245.136606,66.6100847 C244.885668,65.9116685 246.547797,65.6211258 246.087182,64.6998112 C245.373481,62.4946089 247.833997,63.2852917 248.361245,63.1713361 C248.746249,63.024954 249.419983,62.2370338 249.419983,61.9406096 C250.131198,60.9911123 249.779601,58.4289477 250.117725,57.5492877 C250.194937,57.0719614 249.568913,55.6185073 249.28763,55.3803996 C248.842455,55.0681253 248.373144,53.7676184 248.698006,53.7676184 C249.691656,54.3561375 250.58306,55.4236919 251.080384,56.4622803 C251.336758,57.085889 251.964876,57.4758474 252.187266,58.0870238 C252.554387,58.8152604 252.917756,59.4626372 253.534888,60.0499886 C253.468887,59.6334709 253.303534,59.1532965 253.703275,59.23024 C253.96385,59.2499038 254.455119,59.8210377 254.473397,59.6120241 C254.473397,59.382703 254.088378,58.8909935 253.895869,58.8909935 C252.715877,58.1259157 252.59784,57.8238948 252.126998,56.664857 C252.388725,56.0875739 253.745688,57.1637582 253.751448,56.9661943 C253.366205,56.5821886 252.863571,56.2889259 252.476178,55.9097336 C252.211472,55.6364936 251.525503,54.975474 250.935879,54.4387917 C250.096399,53.6503304 248.033137,51.1538448 247.567142,51.281728 C247.398726,51.3463745 247.434818,51.4026104 247.74764,51.5953409 C248.322049,53.8496744 247.401016,52.2879326 245.894617,51.4966231 C243.957583,51.4175477 240.968863,51.506962 241.863906,50.2034502 C242.381291,49.533758 242.573899,49.1582541 242.417467,49.1058049 C242.515821,48.6956956 243.222344,46.54102 243.41623,46.4685338 C243.813289,46.3160566 245.53379,46.2963756 245.630024,46.4415345 C245.666115,46.5122847 245.810493,46.5710697 245.94286,46.5710697 C246.075185,46.5710697 246.159435,46.5271265 246.12333,46.4758949 C246.099264,46.4234386 246.508475,46.3977309 247.037886,46.41481 C248.191354,46.7201063 247.810508,45.9319156 248.072432,46.0073923 C249.267062,45.8602269 250.008201,46.8164744 250.165968,46.818696 C250.775625,46.7831992 253.674911,46.5527188 251.874571,46.0720317 C251.037704,45.8086464 251.551142,44.0948261 252.127166,44.036296 C252.789351,43.3819412 254.258775,44.8448654 254.365123,44.7985113 C256.762955,45.4831138 255.400203,43.2686121 255.424114,43.2579315 C256.283276,42.9909005 256.055476,44.275956 256.711494,44.3752008 C256.757335,44.9686758 256.065788,45.8039896 256.193954,46.5710042 C256.303169,47.0954108 255.817365,47.7850403 255.412004,47.7908221 C255.141398,48.2087212 255.362173,48.1320339 255.71273,48.6823021 C255.616469,49.1946325 256.242184,50.0278244 257.637823,51.2476566 C258.560907,52.3071649 257.853934,51.5793128 259.767324,53.1382777 C260.353914,53.5607195 261.360025,55.1448196 261.752686,54.3741736 C262.104648,53.5950828 261.05788,52.9587427 262.077632,52.5064804 C262.342815,52.2146703 261.234654,51.8486651 261.391719,51.3428428 C262.146794,50.1221988 260.165984,49.1970249 261.776639,49.5789657 C261.88494,49.4643023 261.331436,48.8898061 261.102821,48.8849215 C260.35737,48.6822166 260.203902,47.5568158 259.454488,47.7223804 C258.830262,47.9731341 258.247255,45.810398 258.359715,45.8281991 C259.46598,44.8729342 263.194995,46.114142 262.919922,45.5230453 C262.535999,43.6395447 266.623439,43.526472 266.625687,43.300469 C266.238603,42.5253941 263.847557,42.0411468 263.61758,41.4135506 C264.189516,40.0630297 263.336873,40.5035433 262.955872,39.9802047 C264.36608,40.0913848 266.194518,41.1003364 267.552044,41.2035686 C268.288251,41.3545363 269.925149,41.6137491 269.994409,41.5695454 C268.56664,40.1847324 269.546495,40.5387468 271.077339,40.7388883 C269.215746,38.9028099 266.086399,39.5208646 264.279175,38.710273 C263.629451,38.3894541 258.226997,37.0221575 256.458407,36.7317856 C255.868839,36.6342028 254.91853,36.534179 254.35307,36.5073492 C251.955941,36.5603637 251.959734,36.8746788 249.058819,36.7317856 C248.084247,36.700074 245.870467,36.690225 245.690082,36.7170591 C243.36123,36.0040461 242.282571,35.4297393 240.023119,35.5204253 C236.722378,35.526848 233.774962,34.3767249 230.589982,34.0677118 C227.698199,33.590827 228.030731,34.2901972 228.075266,34.4336885 C229.926041,35.4341113 228.732323,34.986876 227.305439,34.9826465 C227.315835,35.3507736 224.276822,34.7997222 224.321216,34.9826465 C225.026193,36.5639553 222.572153,35.0331176 222.131586,34.6319502 C220.861781,33.5159056 219.143709,33.4987026 217.535415,33.1413559 C216.466253,33.0145279 216.699096,33.2149984 217.174448,33.762857 C214.422027,33.6564476 214.566588,33.2489601 210.833569,33.3128874 C210.011706,33.019995 209.396247,32.6164508 209.052897,32.0666241 C208.840691,31.0693343 206.347118,30.7908109 205.719844,30.7857269 C203.733358,30.6366818 202.985546,30.0784245 200.967451,30.0001093 L200.968252,30.0001093 Z M70.6895207,30.0004785 C69.6550715,29.9821809 65.2127037,30.6488338 65.0773389,30.9196978 C65.48072,30.8439334 68.7144928,31.5741265 68.929189,31.7209158 C69.4342559,32.2593862 70.8110246,31.8582747 71.0330936,31.8302409 C71.8211289,31.7307382 73.0069419,31.6265049 73.6687252,31.5995388 C75.3022446,31.6288426 77.5403344,30.7872451 74.7624813,30.8843758 C75.2423479,30.4110568 74.6762873,30.3907053 74.1978127,30.4969793 C73.0940737,30.7194435 73.695341,31.1334417 72.8680382,31.1474327 C71.9282558,31.1591489 71.9429867,30.7057176 71.0055193,30.6242784 C69.7246855,30.6528655 70.8267435,30.2646208 71.0684801,30.2250442 C71.824134,30.0505711 70.9276315,29.9996315 70.6895915,30.0004708 L70.6895207,30.0004785 Z M181.939193,29.0022734 C181.595974,29.0178596 181.259191,29.1164602 180.991252,29.2972552 C180.133381,29.7963653 177.61213,29.3757604 177.099256,29.9760182 C176.870227,30.3536845 175.615959,30.3964271 175.660839,30.7507227 C175.188203,32.1773807 174.774799,32.2628193 174.077339,33.6364342 C174.357627,34.4959393 178.2667,35.4114906 178.525536,34.8026531 C178.441223,35.048575 175.805217,33.8838809 176.736688,32.9249023 C177.248348,32.5396895 177.632749,31.3530562 178.295914,31.192324 C179.319149,30.510698 180.200772,30.3037221 181.027523,30.1217509 C183.142808,29.6618046 183.565781,29.3654691 182.550478,29.0639834 C182.353373,29.0134718 182.145175,28.9929531 181.939249,29.0023045 L181.939193,29.0022734 Z M226.089105,31.0002136 C225.528281,31.0029817 225.083732,31.0585646 225.077339,31.2557994 C225.077339,31.5402052 225.548027,31.7125381 227.095247,31.9791326 C228.188193,32.0453412 230.903289,31.9686455 231.077339,31.5485116 C230.312856,31.0084614 229.381455,31.2560696 228.144571,31.0641159 C227.723333,31.0806349 226.810201,30.9966596 226.08912,31.0002195 L226.089105,31.0002136 Z M64.1576653,32.0001093 C62.9933334,31.9957583 61.7297327,32.3242242 60.9819432,32.7730116 C60.1820858,33.2054635 58.5227045,33.6144438 57.9424027,34.2364211 C62.8253049,35.0286773 62.7288251,35.5628161 57.0405585,36.2298855 C57.8589007,35.4019343 53.1726864,36.8048347 53.5745432,35.7154736 C52.4426844,34.5866446 46.4891126,37.5301805 46.4865512,36.3703338 C45.2044656,35.0639484 38.483851,36.4321486 37.8264223,34.9713195 C34.4546099,34.9950808 29.1796696,35.3400828 26.3093246,37.5541891 C28.029454,39.252739 24.952517,38.9824124 24.7859968,39.0175986 C24.3730832,39.1649287 20.8778536,39.6851202 21.5941947,39.9822958 C22.042157,41.6510291 23.1725928,40.9803139 24.5923257,41.0038138 C24.485246,41.5264217 21.8235833,42.0750872 21.4649858,42.0182946 C20.3006255,42.1600147 18.997636,43.0953052 17.9878711,43.3496637 C15.0987423,46.0858551 20.1899726,45.1277712 17.2031829,46.3297567 C16.6252149,46.8612247 19.1538393,46.0270841 19.0690282,46.5256693 C22.7982996,45.4800013 16.8740417,48.2974178 14.8644729,48.99973 C11.6466298,49.4126105 10.8074832,49.6184289 10.0773389,50.592721 C10.6672033,50.7628021 13.9019517,49.4112115 14.0882232,49.9608662 C15.6932315,49.6745998 17.3375147,48.5214794 18.871515,48.2057922 C19.1341734,47.817952 25.3959967,45.161827 25.3345229,45.8563672 C26.0849592,45.625777 29.1032115,45.4385833 29.7791393,45.1192502 C31.1470748,45.288116 31.3807324,45.2346739 32.7186424,45.1492857 C34.5168949,45.0038492 36.0415034,46.8765216 35.2816182,47.8921187 C35.7713884,48.9283047 34.5697311,50.1933569 35.6592413,50.2898719 C36.0374905,50.2855336 36.8095992,52.4230922 36.4480134,53.040053 C36.9506618,54.4607867 35.4088634,54.3973667 35.4118517,54.4696893 C34.6193513,54.5706413 37.30943,56.7375783 36.8550643,56.7050769 C36.4845705,56.6772317 36.4345945,56.740372 36.1311385,57.6808669 C35.9288298,58.3078607 35.2303189,59.5957628 34.9244153,59.9093304 C33.4380857,61.1688998 32.9512754,63.1467494 31.9227268,64.4021501 C31.6080433,64.7388784 31.3201692,66.4096042 31.4205765,66.6342876 C31.5964316,68.200571 31.8088579,69.1880474 31.8472506,70.6589463 C34.1183679,71.9364197 33.6958775,72.8707351 34.1054185,74.834807 C34.0296108,75.70566 34.5706561,76.2951077 34.965839,76.8959591 C35.0875843,76.9537168 34.6947422,78.276165 35.2328518,79.1776965 C36.6168388,79.8061599 35.9835301,80.3340669 35.8153735,81.1965968 C36.6064367,81.7908914 37.1405477,82.9646712 37.5520098,83.1974093 C38.7259896,82.7750328 37.638419,82.0220891 37.3533867,80.8260811 C37.3007838,80.2708447 36.8150636,78.4341217 36.3943234,78.1825893 C36.4402951,76.2127237 36.3500822,77.1360594 35.6093649,75.9880404 C35.2920204,75.4602747 35.5455801,73.9102137 36.0248684,74.1120048 C37.0828448,74.3862033 36.8098554,74.8302285 36.9122691,75.6214814 C37.1162143,77.4722225 36.431165,76.4299035 37.4874338,77.5352469 C38.1883923,78.6383575 38.783536,79.5763328 38.6184104,80.111051 C39.9021609,81.7498266 41.3086029,82.7364551 41.3105951,84.8206407 C41.3382142,85.6843717 40.7517665,85.9546276 41.2081487,86.6702513 C42.1835053,87.7340069 45.2745301,89.6509094 46.2317862,89.7834585 C48.26455,90.9672714 48.5616736,90.4553607 50.1998379,90.2675593 C50.6946455,90.2675593 51.3052289,90.6584519 51.7610176,91.2660862 C52.5202766,92.2755787 52.889632,92.562368 53.5587009,92.6688877 C55.6172211,93.1521689 57.7114588,94.6756353 57.8328412,96.168296 C58.5735869,96.457106 59.7745327,98.3713236 59.8583477,98.3772586 C61.1549052,98.6629315 62.1131005,99.8939421 62.6884217,99.6217502 C62.9634603,98.1457641 63.7864699,97.8655457 64.9051802,99.4861771 C65.6751687,100.756302 65.3920616,103.9513 64.5163865,104.429494 C63.7115914,104.888343 63.9983555,105.787316 63.3050244,106.052584 C62.2989166,106.069654 62.2285205,109.342288 61.9838631,109.395562 C62.1735213,110.461381 62.120022,110.404871 62.1094661,111.116863 C61.1971771,111.450765 61.9637076,113.636001 62.433698,113.877783 C63.4152874,114.580081 64.0737122,115.9135 64.5736141,117.017557 C64.7664172,117.634518 66.987032,121.33275 66.968533,121.442972 C67.507098,124.373041 72.2430464,124.711055 73.0705243,127.037446 C73.266273,128.815271 73.9520195,135.800098 73.5996405,137.163601 C74.0819968,140.067669 74.5973668,141.728913 74.2698905,144.917721 C73.8397728,146.744722 74.8299714,149.190945 75.2338489,151.175366 C75.6485697,152.946549 75.962129,154.792768 75.865137,156.041386 C77.6187071,159.789641 79.973924,162.12762 81.2736975,163.32791 C82.7345553,163.809029 83.3497207,164.799092 85.3638432,164.804885 C86.6714148,165.375143 87.1108675,164.533216 87.4355974,164.344864 C89.1050678,163.798021 86.5490505,163.940702 85.0016882,162.468828 C84.5399797,161.610142 83.1650146,160.838249 83.1018331,159.878328 C84.2683422,158.940776 83.27248,158.550421 84.2900288,157.651277 C85.4733862,156.352226 82.8472432,156.105767 82.4997451,155.520883 C84.2528883,154.336788 82.5241013,152.619783 84.2706759,151.998724 C83.722221,150.130602 82.7743853,151.789557 82.6374921,149.965128 C84.5241132,150.850719 85.5852487,149.652719 84.610632,148.343168 C84.0655496,147.717743 87.6060593,148.689081 88.2205132,146.93901 C88.5771611,145.763054 88.0343271,144.150816 86.9786418,143.549965 C86.6518342,143.462898 86.3287123,142.718467 86.7238953,143.071813 C89.2003523,143.518453 90.1529124,144.61478 90.8905986,142.43644 C91.2993144,141.117958 92.7015159,139.891017 92.9735946,138.7481 C93.1161798,138.110211 93.487812,137.41673 93.7729966,137.258124 C94.4236802,136.620645 93.6271811,133.784858 93.9375672,133.75165 C95.7507612,132.477596 96.5271532,131.358843 98.7390735,131.285927 C99.2728572,131.346705 100.297407,130.161535 100.239491,129.935085 C100.574779,129.632709 101.327621,126.05216 101.333967,126.045943 C102.002495,125.338063 101.166024,120.807429 101.943185,120.769699 C102.522177,119.340204 104.321596,117.761626 104.91684,116.362654 C105.247418,114.915213 105.046945,113.874886 104.502432,112.569321 C103.08102,112.298061 102.62748,112.034263 101.930918,111.369737 C99.4083558,110.116937 97.3215177,109.839206 95.5327994,108.423418 C94.5734658,108.651634 92.9904572,107.59346 91.9071228,107.293119 C90.8923774,106.736342 89.960024,104.75561 89.9230258,103.369921 C89.8638131,102.506967 86.9988911,100.485637 85.42092,100.915361 C83.6137026,101.04953 83.4873396,99.7684161 82.8726011,99.0198248 C82.4354537,98.4176451 80.7477688,98.0980577 80.995941,97.7379849 C80.3131259,97.0507929 81.2427187,95.618613 80.8240135,95.7674128 C78.9334079,96.1828651 78.7817155,95.6518139 77.4457976,96.4330973 C77.2067326,95.9140363 74.2214087,96.2462427 74.2051864,95.7820243 C73.3372952,94.7687446 72.8438821,94.0255372 72.5562073,94.3416484 C72.108615,95.8573427 71.0738621,96.21726 71.485993,94.2012057 C70.9355032,94.1920488 68.9056566,95.6644739 68.3014483,95.5255376 C67.8078645,95.4020748 67.1340712,96.3885761 67.2437565,97.0761355 C67.0145387,97.4629725 65.9288422,97.9199982 66.009242,98.3506696 C64.9719989,97.7232802 64.2694751,96.7790165 62.9732591,97.446312 C61.2508528,98.3336418 60.7639002,97.2527169 59.9315841,95.6392359 C59.9680344,94.8665935 60.5183464,91.9887668 60.7955479,91.542085 C60.7858003,90.7600455 58.6866532,90.0929478 58.1557298,90.4115037 C57.438919,90.6806715 56.3140756,90.3897645 55.7754679,90.4564234 C55.6577839,88.3674332 58.5474833,86.2429741 58.3118335,84.7599225 C58.0315867,84.255473 55.2660318,84.6333085 54.9637854,85.2551303 C53.6629446,88.6105434 51.6336671,87.8408262 49.9829804,87.4458639 C49.4095233,87.1500591 48.4380229,84.5307737 48.562109,83.6707592 C49.2483678,80.9936356 50.0675069,78.158951 51.8304688,77.1040696 C52.773381,76.4501137 55.0067602,75.6413666 55.924172,76.4275606 C59.6918646,76.9022643 58.3797109,74.380257 61.012414,75.5754312 C62.8367075,77.3138306 63.2522252,74.8297933 63.3048764,77.5472752 C63.2073791,77.7336776 63.1415153,78.0156906 63.1610105,78.1742549 C63.3468835,79.4168387 63.8159774,80.4032836 64.5917005,80.9582091 C66.1592838,80.8269431 65.3277361,76.9589863 65.2328074,76.5703829 C64.8085809,74.9816312 65.8795493,73.5631584 67.0719001,72.9548176 C67.6377584,72.5296855 69.8100479,70.937613 70.4683304,70.900731 C72.2890664,69.2271932 73.3560362,67.8279386 73.1885484,66.5770598 C73.153208,66.361604 73.1751579,66.1546833 73.2373205,66.1159501 C73.3006926,66.0772156 73.3520261,66.1292898 73.3520261,66.2333903 C73.3520261,66.5008907 73.4286678,66.4766701 74.0075622,66.00581 C74.2890897,65.7758275 74.5937552,65.3995041 74.6851691,65.1707368 C74.8326352,64.7955156 74.9192394,64.7397121 75.5347036,64.6138329 C76.3829289,64.4419431 77.0677078,64.1538962 76.7032902,64.1224122 C78.95662,64.0362101 78.1980156,62.7982499 78.2987644,62.7158236 C78.7866846,61.8816124 79.5414185,61.4176483 80.2986568,61.1568884 C81.6353858,61.172294 82.9609584,59.4720457 84.2594512,59.7649113 C83.7956367,60.3934736 82.0140903,60.7157883 82.7933283,61.5346815 C84.6161988,61.8078202 85.3203021,60.2148574 87.352639,59.9503104 C87.8435333,59.4208489 88.7626955,59.2956339 88.8295767,58.951515 C88.138807,58.6937792 88.8909595,58.3323922 88.6162397,58.0509586 C86.5735148,59.2273386 85.8376785,58.6912215 84.9712103,58.0171318 C85.5308358,57.1249126 86.5067759,55.7197089 85.2575617,55.7332747 C84.0865418,56.1243933 84.5734517,55.8087556 84.1911469,55.4147754 C85.1545361,54.5051327 86.8228539,54.8099532 87.7596187,54.8132316 C91.0803451,55.2351841 91.3731997,53.6135636 92.9015079,53.5919997 C93.5792572,53.5024895 92.9949041,53.8656329 92.7295804,54.1221111 C90.3346616,56.6849148 89.0744476,57.4057386 91.2062526,57.5330592 C94.3128167,57.6565178 94.0727556,57.6287616 93.8802229,57.8393775 C93.7385911,59.703967 95.3823478,57.6234554 95.1670471,57.0416526 C94.6049171,57.1150252 94.3328384,56.3086196 94.9842335,55.9668182 C95.2242804,55.6247342 94.8352448,55.540485 94.8515453,55.2670496 C93.6970465,55.8287722 93.794067,54.94571 93.0342246,54.7878098 C93.9483208,53.9663872 93.7890011,54.4217879 94.1652012,53.7129754 C93.1126607,53.4207175 94.3869624,53.1388175 94.6381941,52.2412286 C94.7323273,50.8271365 93.733447,49.8437581 92.1810899,49.6388581 C92.1799515,47.6630575 91.3266033,46.8721438 91.5645157,44.3929958 C91.606705,44.6948205 90.3749967,45.4050037 90.2311023,45.5389941 C89.8194267,45.9107815 88.4869241,46.9208958 88.003529,46.5486138 C87.0484359,45.891634 87.3320552,44.9036206 88.0716454,44.2222223 C86.9293986,43.7196381 86.887918,43.7485219 85.9156493,42.6679503 C84.7339425,42.8074151 82.4873436,42.1173771 82.3205673,43.3677189 C80.0372122,45.8854446 80.5132076,45.3948152 80.6643309,47.3208746 C80.6643309,47.6198448 80.209709,48.561466 79.9562147,48.7878169 C78.9395339,49.5115234 77.8350822,49.8999148 76.6352037,50.1083616 C77.1124229,51.539411 74.6112625,54.6163015 74.4487552,53.3498786 C72.7734505,52.9369558 75.7547615,50.5386515 74.9509055,49.7863154 C72.947171,50.1326246 72.1048939,48.5078246 70.773245,48.0883309 C69.9875608,47.6911924 69.4814545,47.7468263 68.7014908,47.9029741 C68.6113035,47.9041046 68.7488826,47.2735074 68.9499761,46.7724069 C68.851524,46.2555787 67.7539255,46.4879493 69.3071648,44.6349473 C69.3534765,44.6336755 69.717702,44.3905653 70.1150052,44.0940115 C71.6376214,43.0595071 73.5511374,42.5157167 75.0277905,41.5945149 C76.008825,40.9886187 76.7584502,41.7665461 77.4274053,41.7493062 C78.6766194,42.3310807 77.6710523,42.0773439 79.2590984,41.7300937 C80.5055519,40.7916378 80.3412374,42.1604542 81.68945,41.7192693 C81.8062347,40.0536448 83.4531235,37.5913128 84.3887498,37.2516028 C84.6536139,36.1460193 86.8199553,36.2209844 85.8439156,37.5879637 C88.0359137,37.2294595 86.3204233,37.8425766 86.5751983,38.3445673 C89.1666342,38.0262659 89.4774187,38.2955765 88.4033338,39.0029462 C88.8824741,40.1273098 83.4844296,40.1454682 84.0695696,40.9357885 C86.1887099,40.9861981 87.6512753,40.3910231 87.6988037,41.9719321 C88.2179304,42.7957712 92.1427086,43.9945064 92.0325679,43.4210692 C91.3061234,43.5800151 90.8733162,42.2147032 91.8012441,42.3811385 C92.7003134,42.9761679 92.5432989,42.5994488 93.267367,41.9043434 C91.6062923,40.0138942 92.9198548,39.6746081 94.3215155,40.4022149 C95.4104565,40.1003902 96.3888584,39.5304716 97.2695567,38.8624978 C96.5290529,38.1769309 94.628031,37.7033436 93.9485457,37.0285728 C96.8103527,34.9479199 90.3164656,34.2952076 91.1455088,33.3364172 C91.1455088,32.9891471 90.7140819,32.8040165 89.7439761,32.7351419 C88.3507538,32.8009586 87.5024573,32.8175159 85.904991,32.6328544 C85.0726037,32.3102713 82.730265,33.0288624 81.730888,33.9152313 C80.1711313,35.0798542 80.6926487,36.1562713 81.7077271,35.7880167 C78.6984967,40.0288801 78.7208379,35.2639674 78.61582,34.3388796 C79.1672063,33.7494319 82.9039058,32.7036368 82.7253186,32.5193681 C82.1932994,32.3443129 81.6512622,32.4150642 81.0908541,32.3415856 C80.7491904,32.2944926 79.2824983,32.6517759 79.0422949,32.8597846 C78.22317,33.2427497 78.2667283,34.0415627 77.5263668,34.3426949 C76.8213243,34.535965 76.1118705,35.3494884 75.725126,35.5604082 C74.0294722,36.2436435 73.0565632,36.7988799 72.3466255,37.5200994 C72.0919075,37.7839682 71.9700413,37.8067898 70.6976464,37.8261493 C68.7795768,37.7608328 68.3169576,37.325176 70.3856808,37.1447793 C70.8093808,36.6773813 72.4264135,36.3870452 72.495287,35.8821576 C72.4928536,35.7550617 71.9810269,35.4778688 71.3716673,35.2733081 C70.7586222,34.815067 73.2971365,33.0502144 73.4740162,32.8901098 C73.2855248,32.6290249 70.5592733,33.2426366 70.4004659,33.4045217 C69.2018254,34.9435322 70.0504633,33.9678694 69.6277737,33.4913852 C68.5623692,33.1942661 67.0549791,33.8415945 66.405377,32.715846 C65.9089756,32.2089376 65.063454,32.003741 64.1578816,32.0001093 L64.1576653,32.0001093 Z M80.0594245,33.0001331 C78.1891916,33.1945491 77.9293313,33.0685751 77.0164116,33.2939207 C76.9320513,34.1926401 75.9738788,33.5055026 75.1588625,33.8171356 C74.743641,34.3875806 76.050077,34.3310523 76.041341,34.8153935 C76.8864973,35.2480581 78.3230061,34.8632101 79.176946,34.2542944 C79.7303897,33.8873967 80.1730559,33.4485332 80.0594245,33.0001093 L80.0594245,33.0001331 Z M128.69877,38.0031506 C127.709584,38.0612325 126.182323,38.9118953 126.112958,38.6822798 C125.566237,39.5569535 125.274486,38.6845697 124.773113,38.240333 C124.114834,37.5806189 123.587032,38.5716636 123.086703,39.1562663 C123.026478,39.5700164 125.259191,39.4868801 123.678615,39.8609437 C123.15376,39.9718068 123.019776,40.0674404 123.097929,40.2601972 C124.12327,40.4089087 124.764651,40.0468903 123.712059,41.3480982 C123.712059,41.5203786 123.846044,41.5700075 124.248049,41.5341862 C125.250612,41.6952496 126.092096,42.3002351 127.039871,41.8155951 C127.690079,41.429285 130.012146,40.5710195 130.077339,39.5933165 C129.15585,38.9593895 129.647718,38.0136268 129.27325,38.1126536 C129.1268,38.0186249 128.927088,37.9898109 128.698809,38.0032143 L128.69877,38.0031506 Z M155.833831,40.0002311 C156.105941,40.0005106 156.37768,40.0371799 156.623349,40.082658 C157.441098,40.3112995 156.089187,41.0025627 155.540429,41.644995 C154.75795,42.5669541 154.645517,43.1743494 154.601305,44.2722758 C154.564963,45.1631531 155.215665,44.9880802 155.802324,45.4059379 C155.826834,45.4849492 156.169884,45.4454428 156.745826,45.2946051 C157.569756,45.2607911 158.318283,44.9212319 159.025101,44.8672021 C160.404641,44.8686416 160.197046,45.0459226 159.699025,45.6117404 C159.699025,45.7613776 159.086482,45.7578697 157.861011,45.6010351 C156.231037,45.7601338 156.874814,46.7659886 155.875624,46.1204957 C155.510797,46.171279 155.159821,46.6822046 155.226353,46.9214956 C155.247157,47.7626615 154.722409,46.8757365 154.711578,49.1099413 C154.785121,49.7192652 154.576695,50.0640303 154.147783,50.0640303 C154.095229,50.3358426 153.179756,51.0885427 153.020479,50.4266703 C153.241024,50.0747217 151.501106,50.2386979 151.182465,50.5990179 C150.677376,50.8794671 149.182341,51.2002779 149.16045,50.5990179 C148.575536,50.1025472 147.085495,51.3343602 147.077339,50.9091933 C148.053206,49.9400105 148.125476,50.6631661 148.094242,49.6642012 C148.543686,49.0134395 148.326547,49.7620139 149.03803,49.7645603 C149.491424,49.7645603 149.589448,49.7215139 149.626206,49.5287773 C150.59944,48.9468735 151.059158,48.7494536 151.280361,48.8631873 C151.427419,48.71594 151.721579,47.8636215 151.660312,47.8001721 C151.119295,48.4928748 151.40311,47.4874531 151.476496,46.6978154 C152.045098,46.3586546 153.977832,45.534497 152.407951,44.8193495 C151.205258,44.1762603 151.764045,44.1860712 151.770727,43.3492518 C151.971154,42.755888 152.886241,41.9614147 153.584274,41.9235966 C154.379001,41.4345889 154.715999,40.4699901 155.042552,40.134994 C155.289337,40.035739 155.56162,39.9998314 155.83373,40.0001093 L155.833831,40.0002311 Z M136.728814,46.0001093 C136.60852,45.9990482 136.45179,46.1045935 136.295901,46.3686447 C135.909431,47.1222411 135.065421,46.5436372 134.686742,47.084362 C134.342071,47.8681242 133.780232,47.6699613 133.522245,47.8772885 C133.549163,48.3395057 133.215018,48.6316486 133.077339,49.0665409 C134.405135,49.2443896 133.80321,49.229299 133.338856,49.824078 C133.927995,49.9114138 134.394686,50.9904807 134.621218,51.0630467 C135.810648,50.6248706 135.443427,51.080992 135.798869,51.4751657 C136.210485,52.1770601 135.742725,52.4525392 135.144526,52.3789498 C134.392608,52.3984225 135.074388,52.4328604 134.320224,53.1312174 C136.162973,53.2898516 132.800866,54.2381437 134.634371,54.3611288 C135.262421,54.3938346 135.733375,54.6764268 135.157695,54.6764268 C134.64919,54.9577405 133.725983,55.5580791 133.404319,55.9926201 C133.767155,56.0528174 135.348203,55.7346296 135.471491,55.5922009 C136.064556,55.4036911 137.381307,55.2222225 138.075355,55.2573065 C138.664143,55.2887034 139.749901,54.9185173 139.749901,54.6843234 C138.751789,54.0941877 140.383267,53.8768103 140.024877,53.12746 C138.571409,52.0973306 139.099469,53.5492474 138.650943,51.7328813 C138.422364,51.1792043 137.72222,51.0661931 137.564849,50.5187631 C137.447076,50.0189875 137.106957,49.5833621 136.845272,49.5781232 C136.50798,49.2648566 137.07651,48.4725868 137.342533,48.2122135 C137.656559,47.8877511 137.434106,47.7424816 136.609788,47.7424816 C136.37105,47.7141287 135.597743,47.7543188 135.824687,47.4807031 C137.122754,46.9651801 137.089419,46.0032637 136.728554,46.0001093 L136.728814,46.0001093 Z M133.611722,49.0005694 C133.1329,48.9910041 132.68195,49.1299512 132.415835,49.4761812 C132.38446,50.7389071 130.999359,49.9568225 130.709614,50.4946542 C130.737314,51.0478307 130.561599,51.5520285 130.930272,51.6553262 C131.956848,52.0250066 129.349071,53.5681981 130.283153,53.627821 C130.575423,54.2921229 131.839985,53.9455052 132.592427,53.5304582 C133.32979,53.1617105 134.173249,53.2132313 134.357483,52.5498073 C134.414137,51.1921419 135.389692,49.962611 134.974961,49.4166771 C134.59722,49.1682543 134.090561,49.0101804 133.611739,49.0005968 L133.611722,49.0005694 Z M69.0486481,57.0003587 C70.2969849,56.9832687 70.1133932,57.8464339 69.9871038,58.9297339 C69.5041638,59.0954065 69.2770044,58.6341582 68.4095706,59.0001093 C67.5576668,57.7161766 65.7938638,58.8249769 64.0773389,58.6990408 C66.0877063,57.2710484 66.2988121,57.6101817 68.1981656,57.10454 C68.5370121,57.0368088 68.817509,57.003535 69.048678,57.000372 L69.0486481,57.0003587 Z M171.094347,57.0001093 C170.841448,57.291851 170.137424,57.37007 170.040294,57.6089918 C170.315717,58.0636002 170.346029,58.0218371 170.114843,58.5941532 C170.028063,58.9351135 170.294713,58.9030645 169.690787,59.0427278 C170.078799,59.157518 171.233426,60.3188885 171.875409,60.8821064 C172.24731,61.2176489 172.804973,61.6235284 173.12731,61.7831729 C173.536427,61.9901721 173.772043,62.2132984 173.920806,62.5650786 C174.193565,63.1509155 174.119321,63.3849091 173.62341,63.7069149 C173.350665,63.8800961 172.928969,63.9628484 172.073533,63.9939654 C171.357451,64.0733296 168.830762,63.3639328 168.565284,63.0130372 C168.379319,62.7695031 168.280105,62.7558875 167.3627,62.8478801 C166.606464,62.9236461 166.209607,63.0426694 165.775766,63.3173205 C165.015636,64.038082 163.644558,64.0446845 162.738401,63.5284423 C162.416063,63.3430828 161.95744,62.2851361 162.106218,62.1119549 C162.423388,61.5278396 162.9226,59.8710563 163.122823,59.7617519 C163.685451,59.4149157 163.771666,57.7148212 164.523575,57.7025008 C164.709554,57.7025008 164.833709,57.7811147 164.833709,57.9015233 C165.318287,58.4107682 166.104704,58.1288986 166.495047,58.3912292 C166.290423,58.520578 165.631968,59.0285593 165.775824,59.0717914 C166.976845,59.2893261 166.559824,60.0601119 166.990886,60.1162331 C167.59833,60.009467 168.123771,59.4674039 168.75109,59.46137 C169.531297,59.326894 168.692262,59.0556958 168.453708,58.9498822 C168.197812,58.902627 167.955379,58.5053196 167.821525,58.3533991 C168.107226,58.0219477 168.452724,57.5877469 168.862782,57.5212955 C169.414915,57.4055229 169.966991,57.1737169 170.486917,57.0936025 L171.094463,57.0001093 L171.094347,57.0001093 Z M181.202439,59.0001093 C181.854941,58.9947593 182.18884,60.8166585 181.800853,60.6633163 C181.120915,60.5191349 180.273802,60.3391766 180.298502,61.2384746 C180.097324,61.4717579 179.581907,61.2723262 179.7576,61.6094124 C180.068652,61.9795105 180.834338,62.3509785 180.839419,62.8787643 C182.635082,64.0337945 182.018115,63.6211406 182.125448,64.6378536 C182.685296,64.9988189 182.515413,64.4544027 182.911414,64.3148776 C183.408095,64.309884 184.020248,65.2964147 184.077339,65.4578585 C183.25807,65.9673492 183.678237,65.5275827 183.236009,65.5210454 C182.702572,65.4529032 182.754428,65.3995104 182.594341,65.6863486 C182.802874,66.8420564 183.790805,67.4775499 183.94031,68.4230862 C184.285128,69.9467857 184.004642,69.6895215 182.702376,70.0001093 C181.90267,69.9730895 179.917308,68.8657014 179.793668,68.1113936 C180.043811,66.6469981 179.825062,66.8374311 180.719329,66.0775846 C180.148127,65.4879612 179.472848,64.9618842 178.976574,64.4056986 C177.990959,63.2814841 177.834563,63.0417047 177.834563,62.666937 C177.834563,62.2518232 177.485998,61.7383995 177.077339,61.561754 C177.893983,59.8282954 180.548815,59.1038605 181.067936,59.0266739 C181.11415,59.008946 181.159074,59.0005159 181.202551,59.0001093 L181.202439,59.0001093 Z M69.0772655,59.0001093 C67.2718772,59.9676045 66.484034,62.324195 65.2938637,63.4164309 C64.5315307,64.078275 64.1056388,64.1804873 64.0773389,63.7065809 C64.5787888,61.406526 66.2697483,59.0975679 69.0773389,59.0001093 L69.0772655,59.0001093 Z M70.5371178,58.0001582 C70.7234064,57.9965996 70.8897766,58.1870961 70.9869139,58.5560937 C71.3062769,59.7878548 70.71295,60.4849073 70.2458923,59.426041 C69.3975722,58.7849275 69.0702076,61.5007579 68.5290539,62.0001093 C67.9857251,61.2695725 69.3749192,59.1130489 67.0773389,61.3867989 C68.1778712,59.3494786 68.4061874,59.9524878 67.6723128,58.2173381 C68.9049406,57.9979939 69.9421129,58.0333512 70.5370246,58.0001093 L70.5371178,58.0001582 Z M149.743478,59.0004712 C149.843538,58.9999013 149.889013,59.0221141 149.794939,59.0823172 C150.196595,61.0421664 153.344485,61.8736348 155.008745,63.0679802 C154.805063,63.8232829 155.383291,65.5565441 155.583688,65.569794 C156.151113,65.7039816 156.094543,66.2756019 155.958833,66.5874453 C155.956351,67.6702064 156.828963,66.9282676 157.084165,67.9690421 C157.946135,68.2562662 158.192168,68.1803712 158.396784,68.9866933 C159.037875,67.8072362 158.150926,67.6918194 158.684438,67.7663324 C158.637635,67.3919437 159.508729,66.875681 160.022197,67.5453436 C160.709069,66.9454782 157.336753,65.4686672 157.921871,64.5700943 C158.283687,64.6520358 159.207512,65.335655 159.28455,64.543358 C158.629167,63.6400835 161.422394,64.1064096 160.959905,64.5627285 C160.259106,65.1327032 160.507095,65.7125228 160.922459,65.8894877 C162.355052,65.928857 160.04757,67.2480894 161.772473,67.4001216 C162.508295,67.633648 161.844985,68.216089 161.885132,68.4876128 C162.886243,68.23159 162.54285,68.9367995 162.660239,69.1085641 C163.262482,69.3542006 162.839527,68.3061031 163.32298,68.4229446 C163.905471,68.7951535 165.263011,69.3595433 165.160819,68.4068481 C165.110818,68.0492853 166.123623,68.3629253 166.6988,68.8840163 C166.83305,69.0045921 167.052587,69.064657 167.293612,69.0739034 C167.200224,69.0973929 167.106587,69.1168232 167.012673,69.1249214 C166.662595,69.1249214 166.750129,69.5019458 167.150223,69.7008657 C167.778029,69.9708222 167.844979,69.5754416 168.388184,69.368834 C168.44966,69.0946317 168.824907,68.6778432 168.800775,68.5487063 C168.690656,68.5659455 168.579487,68.5980929 168.467865,68.6351942 C168.716248,68.3428552 168.926368,68.3156288 169.274272,68.525244 C170.082941,68.4376036 169.587138,68.4077556 169.886997,69.6724881 C170.037014,69.831131 170.137118,70.6488508 170.037087,70.7708926 C169.874544,70.9478432 169.424318,72.2987657 169.274272,73.0285089 C169.183219,74.1376843 167.736291,74.481584 167.111317,74.01342 C166.648711,73.6167913 165.273186,73.7595771 164.723104,74.2611508 C163.565217,74.8038136 162.2454,73.514197 160.984796,73.7119486 C160.105366,73.1936058 158.987392,73.0235508 158.084166,72.4037393 C157.896616,72.11207 156.708611,72.3829298 156.146033,72.8454462 C156.272677,74.2696849 156.941038,75.5639604 154.445714,74.745457 C153.933063,74.38788 153.145284,74.1122245 152.620137,74.1122245 C150.927993,72.3257642 150.122433,72.9514884 148.419194,72.1560797 C146.946032,72.3121723 146.099595,70.6237899 147.706409,70.5316104 C147.995757,70.5536836 147.540757,69.3658591 147.531443,69.360089 C148.077773,67.9675931 147.138254,68.3121766 147.068822,68.0445139 C146.968806,67.6637709 146.45636,67.5904831 145.893738,67.8772657 C144.905138,67.3938429 143.027999,68.6745977 142.392806,68.2813171 C142.055239,68.0787358 141.705072,68.0933677 140.017148,68.3691684 C138.604293,68.5998169 137.766747,68.8839779 137.766747,69.131723 C137.766747,69.2012822 137.679213,69.227121 137.579196,69.1892904 C136.799724,69.1641497 136.106326,70.5263075 135.228648,69.8519861 C134.618755,69.7303546 133.863838,70.0628878 133.390516,69.7335788 C132.384281,68.7334801 134.05768,68.389096 134.82835,68.3800775 C135.994996,68.7781167 136.071683,67.7138912 136.778892,67.5637824 C137.01018,67.4396007 138.232929,66.2215365 137.991728,66.0236567 C137.205906,65.392832 138.966357,63.7815699 139.254595,63.7389707 C140.65126,63.17488 140.781773,62.8892658 140.76732,61.9549324 C140.76732,61.3557365 142.092641,61.1409453 142.855383,61.6144378 C143.754054,62.0157965 144.790012,60.8717866 145.568711,60.4025398 C147.562757,60.3204757 146.837417,61.81511 146.906484,62.0951109 C147.785461,61.7890946 148.544466,63.5470462 149.682149,63.674274 C150.420832,63.9532063 151.747729,64.9917297 151.957659,65.5657364 C152.419462,66.7602528 150.653025,66.9241387 149.844487,66.8654829 C149.106826,66.8020228 148.894413,66.8680331 148.894413,67.1560409 C149.27004,67.3819307 150.548017,68.2963608 150.995031,68.4069478 C151.862621,68.4378372 151.066302,66.8860559 151.782708,67.0984678 C152.388703,66.9934657 153.428719,65.7026666 152.83287,65.3218381 C152.351943,64.8559394 153.244089,64.4287931 153.870435,65.0397429 C154.057985,65.220355 154.083285,65.215625 154.195812,64.9739891 C153.901413,63.5894716 152.252569,63.8201485 152.182641,62.8773665 C150.450205,63.0500714 150.331663,61.4077646 149.369604,60.8294695 C148.753959,60.4316298 148.708965,59.2996018 149.181776,59.1247882 C149.258113,59.0657392 149.57657,59.0010938 149.743303,59.0001093 L149.743478,59.0004712 Z M254.197691,60.0001093 C253.120297,60.734128 255.297948,60.669909 254.98795,61.8312791 C254.968617,63.0875378 253.765207,62.2986463 254.411099,63.472755 C254.486365,63.2474208 255.025766,63.6327488 255.113569,63.9802487 C255.286334,64.2661743 255.522707,64.2614666 255.677516,64.141724 C255.645383,65.191687 256.938411,66.0389406 256.367917,66.8945019 C255.281955,68.7460258 255.11871,67.2009892 254.787459,67.4139311 C254.3548,67.9450742 255.649557,67.9199709 254.661825,68.555141 C254.381763,68.8309865 254.833536,69.0521254 254.687075,69.2593764 C254.316266,69.3674937 253.952677,69.1765563 253.570693,69.2630734 C253.262202,69.4116993 251.941317,69.2724473 251.927403,69.5335327 C251.288512,70.1269425 251.044142,70.565274 250.648127,71.1607469 C250.17147,71.5175793 249.871167,71.7181702 250.246546,72.1022936 C250.843681,72.4790507 251.125355,72.8729496 251.362929,73.6550149 C251.60308,73.9551744 251.981008,74.1232128 252.21596,73.8920631 C252.624908,73.2117264 252.494821,72.7387099 252.416758,71.9281075 C252.345007,71.3211837 253.792551,72.8960175 253.50789,72.1651557 C253.503936,70.833961 254.604837,72.4040316 254.486307,70.9900223 C254.541068,70.3502137 255.117479,71.460768 255.489929,71.5391518 C256.021787,70.9594498 256.097624,70.7012306 256.882244,70.3934417 C257.816444,70.4711678 257.224273,69.3889914 257.647252,70.1301548 C258.382412,70.8652812 257.765021,69.2332485 258.500298,69.9259915 C259.095588,70.3021809 259.155124,69.1334584 258.951763,68.9107411 C258.506069,68.3239498 258.779892,67.6375899 258.32475,67.1319101 C257.867324,66.6228934 258.260952,66.7014848 258.575447,66.5459358 C258.464781,65.0510919 257.10586,64.4946101 256.694012,63.4920014 C256.547054,63.3679512 256.426253,63.2978627 256.323027,63.2615855 C256.486053,63.2621394 256.636365,63.277121 256.731609,63.3138206 C258.82219,64.1805974 256.790178,62.7636112 258.236932,62.7243985 C258.663412,62.7208677 259.077339,62.4931934 259.077339,62.2725807 C258.497911,61.9666057 258.63494,61.5094848 259.077339,61.2122468 C258.756238,60.8364589 258.537221,61.2082175 258.500254,61.4304641 C258.335354,61.5027998 257.52982,61.5540975 256.907201,61.3416389 C255.857209,61.3336357 255.167247,60.0960557 254.197677,60.0002533 L254.197691,60.0001093 Z M74.743458,61.0001093 C75.3357195,61.0001093 75.1021576,61.4641508 74.3413965,61.794326 C73.6520869,61.7814713 69.7696998,62.4026601 71.5318357,61.5466946 C72.4647977,61.3847676 74.0723814,61.007799 74.743458,61.0001286 L74.743458,61.0001093 Z M145.922691,62.0002119 C145.778783,62.3151408 145.478506,62.3976757 145.375078,62.7437208 C145.297044,63.53194 145.834988,64.0221383 145.524402,64.3662922 C145.326614,64.6524648 144.8625,64.1512263 145.192531,65.0543898 C145.388555,65.6082269 145.017308,66.5144293 145.291977,66.8890367 C145.590936,67.2242518 145.591061,66.6947258 145.831432,66.6853667 C145.997382,66.7933635 146.047144,66.5441587 146.072035,65.3534292 C146.088632,64.5628338 146.071967,64.3774294 145.939211,64.2195851 C145.719923,63.7136105 145.969575,63.1564921 145.972414,62.5053622 C145.972414,62.141213 145.955895,61.9960416 145.922691,62.0001958 L145.922691,62.0002119 Z M72.077264,62.0001093 C71.2345634,62.3220201 68.1039546,63.2322187 67.1124539,62.9447715 C66.8759514,62.8025117 67.8826281,62.6552303 68.6768778,62.4353603 C70.3980269,62.1567567 70.5122031,62.1765582 71.8061377,62.0279453 C71.9473441,62.0105305 72.0356142,62.0001093 72.0773389,62.0001093 L72.077264,62.0001093 Z M257.077339,62.7961281 C256.854005,62.8740926 256.730811,63.0366871 256.644997,63.2041047 C256.566598,63.1288853 256.429973,63.059511 256.208934,63.0083986 C255.808321,62.9232107 256.386884,62.8318968 257.077339,62.7961139 L257.077339,62.7961281 Z M160.338844,68.0024003 C160.188951,68.0159133 160.089572,68.0903975 160.077339,68.2596433 C160.100765,68.9827174 162.277237,69.3154426 162.062426,68.6099889 C161.692814,68.4699181 160.788479,67.9619011 160.338844,68.0024003 Z M247.798977,79.0007785 C247.610394,78.9821672 247.36857,79.3527986 247.216307,79.9801329 C246.837552,81.7927478 247.325089,81.7788637 247.585567,82.901682 C247.793099,83.3340177 247.856896,82.2132575 247.900861,82.025544 C247.972913,81.7079402 248.044912,80.9567104 248.062925,80.3565073 C248.12301,79.4272502 247.987572,79.0194649 247.798977,79.0008602 L247.798977,79.0007785 Z M63.1039085,83.0001093 C62.8807853,83.0013922 62.6803879,83.0221994 62.5253394,83.0688975 C62.3173471,83.1320858 61.8823752,83.255834 61.5558813,83.3437456 C60.8192904,83.5131222 59.6437535,84.6037588 60.2409126,84.7391543 C62.4434436,84.1150972 62.2593106,84.3724335 63.8488009,84.4342058 C65.3131955,84.8738602 66.4335808,85.7726692 66.5703191,86.8547423 C66.4896435,87.0868855 69.1471508,87.0250811 69.7030824,86.7819594 L70.0773389,86.6198153 C69.5671095,86.3285298 68.4291204,85.4136844 68.1590292,85.3229824 C67.6257942,85.1485383 66.8742195,84.4549313 66.8742195,84.1376187 C66.8742195,84.0497087 66.8390164,84.0141399 66.7961565,84.060846 C65.8258153,84.1942433 64.5956861,83.0196978 63.1040763,83.0001654 L63.1039085,83.0001093 Z M-7.20432728,83.7830588 C-7.6404208,83.8128008 -8.11378504,83.9164719 -7.84341984,84.079329 C-7.03543254,84.5155658 -6.60221494,83.7765863 -7.20432728,83.7830588 Z M-8.88705695,83.8171848 C-9.04268651,83.9151159 -9.00848472,84.049852 -8.95519784,84.1830338 C-8.8144689,84.0561413 -8.82931302,83.9171953 -8.88705695,83.8171848 Z M-6.34405698,85.0022483 C-6.65917963,85.0305593 -7.01695092,85.3343189 -6.89995781,85.6434541 C-6.67123078,86.1608461 -5.92990016,86.0990723 -5.92990016,85.563364 C-5.87963962,85.1247676 -6.09895887,84.9802292 -6.34405698,85.0022589 L-6.34405698,85.0022483 Z M-4.66599323,85.0010838 C-4.7865522,84.9944026 -4.88465372,85.0219353 -4.92266106,85.0880489 C-4.79687148,85.7432457 -4.25723032,86.2564555 -3.98080971,85.862809 C-3.73950515,85.348704 -4.30431894,85.0211275 -4.66600637,85.0010838 L-4.66599323,85.0010838 Z M-3.58508385,86.0001093 C-4.01871761,86.1089819 -4.01640027,87.3393685 -3.68207328,86.9092224 C-3.44442362,86.7401977 -3.21110588,86.6744201 -2.92266106,86.5689328 C-3.09646158,86.3114378 -3.30549965,86.0344848 -3.58508269,86.0001093 L-3.58508385,86.0001093 Z M71.031989,87.0001093 C70.8388285,87.0003277 70.6893582,87.011274 70.6107685,87.0358157 C70.1370827,87.1853592 70.1080538,87.3303116 70.5486522,87.3303116 C71.8962951,88.7229323 69.3782416,87.7927151 69.0773389,88.1694405 C69.399237,89.0090435 71.2779128,88.3366476 71.7566813,88.7435813 L72.0294048,89.0001093 C72.787339,88.1682765 73.6093872,88.2900258 74.8740528,88.5303989 C75.6333002,87.8537568 74.0348098,87.5557907 73.8485088,87.3874842 C73.5310601,87.2020961 71.8688574,86.9994106 71.0318236,87.0001093 L71.031989,87.0001093 Z M249.136429,87.0006622 C248.816861,87.0092045 248.530108,87.1186853 248.439973,87.3830574 C248.25287,87.7222831 248.773882,89.8546545 248.426853,89.4321131 C248.01356,88.9617289 247.962,89.3523613 248.297795,90.3073855 C248.65897,90.9046985 248.589133,91.3692168 248.762662,91.8372435 C248.747567,92.250785 249.26413,92.6231401 249.537627,93.1071283 C249.821802,93.6072166 250.015328,93.7034429 250.221959,93.4409319 C250.441514,93.1760496 250.33838,92.6759058 250.015509,92.4169588 C250.714197,91.8046273 251.946701,93.3371063 251.952733,93.5407915 C251.952733,93.8686321 251.991625,93.9813468 252.069123,93.8708786 C252.447444,93.6346603 253.139151,94.377346 252.779393,93.7237588 C252.547156,93.3561879 252.810006,93.2022452 252.882769,92.8838068 C252.649355,92.4175967 252.757255,92.5212837 252.960162,92.2079623 C253.102234,92.1295668 253.115097,92.0487639 252.998843,91.8515825 C252.818044,91.5581886 252.598655,91.5189576 252.598655,91.7814769 C252.21774,92.0837875 251.370857,91.3609878 250.868032,91.4144746 C250.112973,91.458648 250.375191,91.0276419 250.919713,91.0355324 C250.919713,90.9167452 250.467649,90.6567012 250.248109,90.6531373 C249.804112,90.5233698 249.891217,89.7101639 250.27379,89.6992641 C251.01306,88.9461224 250.258469,88.2625954 250.248109,87.5468958 C250.292716,87.2522539 249.669068,86.9864147 249.136459,87.0006566 L249.136429,87.0006622 Z M76.8775804,87.0005151 C76.4732388,87.0093303 76.1156024,87.1624588 76.0773389,87.5392648 C76.2618166,88.299958 78.6276025,88.0414198 77.9584663,87.3269492 C77.7328482,87.1273251 77.2818531,86.9916999 76.8775115,87.0005151 L76.8775804,87.0005151 Z M66.7530568,87.0006654 C66.1852784,86.9888706 65.773909,87.1638487 66.3682341,87.6078191 C67.2200861,88.3567804 67.2527922,87.8043653 67.9136524,87.7971771 C68.4715339,87.339711 67.4830346,87.0158349 66.7530408,87.0006822 L66.7530568,87.0006654 Z M251.622331,93.0016823 C251.336639,92.9888169 251.094331,93.0544109 251.091437,93.2153184 C252.359501,95.1753992 251.003272,94.5160542 252.598455,95.8138412 C252.832327,96.5753135 252.513711,96.4976644 251.936276,96.226369 C251.815549,96.6098648 251.566268,97.4059274 251.091437,96.9839529 C250.703701,96.6721693 250.324303,96.8507191 250.105248,97.1728498 C249.374722,97.5763091 248.998037,97.7433114 249.091349,98.4369075 C249.809969,98.4048484 250.211092,98.2497069 250.316524,98.1295733 C250.831071,98.161224 250.796157,97.6668236 251.077294,97.7875052 C251.602662,98.2549914 251.162547,98.9454821 251.725,99.3132158 C252.331018,99.5100721 253.112789,100.263637 253.14762,99.9043977 C253.463539,99.2447265 252.90671,98.5745386 253.232298,98.510864 C253.596764,98.5580732 253.504948,98.8741092 253.697065,99.0830479 C254.511595,99.2413862 253.818449,96.5089249 253.457437,96.1838975 C253.37294,96.2218922 253.358962,96.0753389 253.429414,95.8283376 C252.701289,95.0004116 252.546306,95.1419179 252.499568,93.6422642 C252.694283,93.2625524 252.098445,93.0230551 251.622331,93.0016171 L251.622331,93.0016823 Z M250.081253,94.0001093 C250.05245,94.3750857 250.192577,94.9514706 250.176648,95.4145378 C251.17159,96.4780358 250.30769,96.520571 250.606291,97.4195231 C250.713289,97.7176185 250.909005,97.757695 251.007319,98.0001093 C251.190406,97.048051 251.655841,97.572201 252.057371,97.3216359 C252.176754,96.0748897 251.745629,95.0446339 251.169528,95.2636024 C250.87708,95.1082877 251.174655,94.4404471 250.883088,94.4346196 C250.58179,94.4107402 250.361495,94.0855283 250.081253,94.0001093 L250.081253,94.0001093 Z M247.716245,94.0001093 C247.349338,94.2774352 247.446135,94.91712 247.204206,95.4091497 C247.162539,96.3347739 246.459527,96.4991742 246.150601,97.3296557 C246.005181,97.5597172 246.096333,98.2703259 246.24902,97.8904151 C246.715701,97.3958448 247.325676,95.5439365 247.854065,95.3566867 C248.119932,95.283199 248.159231,95.0007307 247.913058,94.9102899 C247.625277,94.6265117 247.760223,94.2969026 247.892593,94.1435393 C247.865241,94.1392664 247.813525,94.1059227 247.716256,94.0001093 L247.716245,94.0001093 Z M248.060164,94.0171106 C248.11801,94.0234411 248.085302,93.9547523 248.085302,93.9959091 C248.07697,94.0018989 248.068609,94.0102591 248.060164,94.0171106 Z M211.399532,96.0001093 C211.018409,96.7062087 211.346596,96.7460263 211.077339,96.9757757 C211.396106,97.6139037 211.17091,98.5902572 211.255205,99.269491 C211.397131,100.306533 211.50417,101.405688 212.355211,100.851369 C212.933025,100.467349 213.077339,100.218652 213.077339,99.5918616 C213.077339,98.9930187 212.632941,97.5879312 212.344014,97.270147 C211.884579,96.7020346 211.871682,96.0783014 211.399532,96.0001093 L211.399532,96.0001093 Z M245.583832,99.0006062 C245.359641,99.0147711 245.10603,99.4984822 244.755676,99.908667 C243.939803,101.378614 243.154676,101.605252 242.120046,102.895197 C240.333408,103.249623 239.723133,105.56981 238.904069,104.711057 C238.807354,104.434792 238.456718,104.656148 238.226993,105.146448 C238.021451,105.560846 238.033549,106.01383 238.226993,107.08783 C239.030486,108.87478 238.875468,107.576379 239.157892,109.514595 C241.908292,109.855422 240.049347,111.087836 243.208179,110.995147 C243.21679,110.987389 244.878635,110.963556 244.888658,110.936726 C245.136113,109.97632 245.004191,108.736018 245.590071,108.153007 C246.765941,107.506931 245.704447,105.925858 246.871521,105.982663 C247.733105,105.800351 245.02418,102.672449 246.762623,102.203193 C247.76453,100.880167 246.05082,100.359584 246.085519,100.075416 C245.91469,99.2625715 245.758246,98.9894153 245.58386,99.0004275 L245.583832,99.0006062 Z M225.273973,101.000519 C225.104957,101.009882 225.025253,101.155861 225.114016,101.581074 C226.051069,103.134357 227.356657,104.034116 228.48165,105.427804 C228.419978,105.687248 228.900912,106.950654 229.098272,107.018074 C229.443663,107.137812 230.356475,108.792838 230.430476,109.418986 C230.965493,110.574927 231.977612,111.626229 232.811239,112.462646 C233.896725,113.546536 233.921282,113.561462 234.303644,113.4255 C235.845595,113.213251 234.366699,114.30898 234.353016,114.384453 C234.586037,114.762835 235.458465,114.457993 235.475633,115.000699 C236.394999,115.715613 238.140704,115.399089 239.003569,115.81884 C239.426762,116.160368 241.667488,116.164459 241.828222,116.310454 C242.58321,116.420823 243.818671,116.54938 243.925107,116.532416 C244.433234,116.792107 244.956641,117.004313 245.491686,117.000109 C246.766338,116.184132 249.259138,116.905365 250.462626,116.598511 C251.096214,116.189505 252.569161,116.527264 253.028319,116.138409 C253.213321,115.946327 252.892689,115.907535 251.757873,115.978625 C250.4154,116.300872 248.306992,116.038893 247.637988,116.247985 C247.634243,115.839023 246.842211,116.15266 246.552573,115.901375 C244.962662,116.662698 243.283598,115.703979 242.198212,115.393599 C240.4359,115.166657 242.817052,114.855855 242.790277,114.65773 C242.753262,114.577896 242.395773,114.539322 241.865352,114.556786 C238.954715,113.779853 239.572158,114.572192 239.015926,114.513007 C237.805957,114.893996 237.138105,113.372777 236.0556,113.542624 C234.652794,114.110525 235.173566,112.590763 235.229131,111.823776 C235.290804,110.550293 235.377061,110.298451 235.673108,110.459385 C237.106779,110.653054 235.633803,109.750179 235.488063,109.048704 C234.588932,108.723573 234.551543,109.115453 235.0441,109.578789 C234.396844,109.855546 233.63693,108.408956 233.132001,108.030894 C232.690127,107.660156 233.579377,107.125834 233.144531,106.717527 C233.063487,106.0306 232.463659,106.20844 232.083659,105.638675 C231.857378,105.626953 231.183607,104.864305 231.15846,104.859019 C230.041057,104.506367 229.114144,103.584459 228.407692,102.878354 C227.758564,102.359584 227.585415,101.448175 226.668713,101.443966 C226.245203,101.46232 225.596837,100.982743 225.274174,101.000596 L225.273973,101.000519 Z M253.848143,105.000402 C253.838978,104.99977 253.829235,105.000109 253.818881,105.001666 C252.551725,105.7586 251.919128,106.155791 250.087222,105.522683 C249.477246,105.075817 249.361759,105.69952 248.98578,105.790208 C247.827406,105.949003 247.949774,109.011002 247.18185,109.096468 C246.746383,110.274438 247.809576,109.739628 247.856636,110.386176 C247.939533,110.900391 247.612928,111.384894 247.663911,111.881712 C248.147371,112.177469 248.786962,111.869053 248.806609,111.505963 C248.834166,109.813324 248.91679,109.310766 249.164646,109.249069 C249.536445,109.15702 249.619069,109.278495 249.426328,109.661861 C250.732601,111.076103 250.459665,111.461966 250.927304,111.867678 C251.639245,112.251177 251.79975,111.185565 251.808351,110.757626 C251.438321,110.438872 250.17983,108.567107 250.376285,108.382773 C250.70162,108.164366 252.151597,107.546176 252.152883,107.471974 C252.152883,107.180655 251.808609,107.083241 251.381743,107.258675 C250.386414,107.545392 249.039528,108.757371 248.627775,106.78536 C248.76545,106.236302 248.889201,106.207172 250.637984,106.301388 C251.972361,106.291691 254.562576,106.429777 253.998084,105.156707 C253.949883,105.060053 253.912181,105.004852 253.848175,105.000554 L253.848143,105.000402 Z M259.046669,107.000109 C258.183718,107.837951 257.31692,107.437943 257.077339,107.575616 C257.396418,108.262683 259.046948,109.210429 259.500326,109.179249 C260.544224,109.975371 258.442477,109.641075 258.390226,109.773522 C258.264805,110.139159 260.208477,111.775757 259.858373,111.157726 C259.620493,110.687732 260.245564,110.885716 260.359793,110.942161 C260.598538,111.062538 260.896906,111.249479 261.016251,111.357305 C261.135623,111.465142 261.398186,111.569078 261.589196,111.591651 C265.75141,112.45609 265.147649,114.059239 263.284242,115.749531 C263.284242,115.932598 264.358314,115.925016 264.489617,115.741977 C265.835173,115.121457 265.700999,116.756196 266.936715,116.748877 C268.62758,116.76626 267.762273,116.749755 268.034816,117.407062 C268.305017,116.833179 269.290156,114.593422 269.896969,115.122453 C270.339782,115.334665 271.275319,115.656489 271.281674,116.26363 C271.936375,118.372725 274.967792,118.002228 275.077339,117.928744 C273.809177,117.141917 273.287381,115.898696 272.451286,115.013514 C271.234594,113.625109 272.796484,114.177473 272.833403,113.79105 C272.687104,113.15775 272.141782,113.181377 271.78308,112.858147 C270.702987,112.490666 271.420503,111.354495 271.102609,111.642973 C270.622206,110.646305 265.996705,109.382956 264.716571,108.672703 C263.421691,107.680617 263.421886,108.995464 262.758948,109.006282 C262.14111,109.031931 262.095187,110.239784 261.422298,110.260145 C261.210508,110.316098 260.109202,109.196859 260.670301,108.8807 C260.946453,107.895904 259.845203,107.185724 259.046753,107.000109 L259.046669,107.000109 Z M268.088317,118.000109 C267.299113,118.302948 266.664682,121.195349 266.593909,121.920937 C266.513877,122.584259 265.870849,125.53283 264.894777,125.567137 C263.223364,124.194232 262.127146,123.619326 261.014606,122.504883 C262.265809,121.263078 261.970389,121.292246 262.520834,120.274081 C260.896838,118.288725 258.860019,119.090465 257.254877,119.647024 C256.264186,120.226052 255.584308,122.437035 255.134199,122.466041 C253.22345,121.186352 252.238809,121.25978 251.519112,122.638884 C248.855742,123.797735 249.749066,123.826019 247.457856,127.254792 C245.936714,128.702023 241.836624,128.445579 240.733933,130.46561 C240.225136,129.626457 240.074668,131.444521 239.601075,132.223925 C239.028822,136.377948 238.870137,132.46672 239.239553,136.587467 C239.445711,137.898901 239.646621,142.903385 238.444284,142.971703 C236.89064,144.05508 240.767012,145.207658 240.866489,144.358905 C242.397199,143.428347 243.993477,143.371528 245.662357,143.460887 C247.319137,141.618351 250.110828,141.055755 252.29018,140.879364 C253.652257,140.22205 255.738955,142.813187 255.53184,143.904956 C255.13645,144.758067 258.061261,144.589009 258.459873,145.632793 C258.587026,146.409105 257.834982,147.574272 259.435931,148.230659 C260.822012,148.835615 262.262376,147.940674 262.798033,149.000109 C263.634921,148.172927 267.050927,147.792552 267.136193,146.793013 C268.278224,145.251579 269.693192,142.937147 271.26963,142.029425 C271.693386,141.672682 272.779234,140.46458 272.799777,140.043038 C273.784685,137.283358 275.011771,135.169758 275.077339,133.434559 C275.065238,133.255473 275.053335,133.244107 275.00513,133.386629 C274.506872,134.276004 273.279124,131.879354 273.35426,131.29055 C271.908113,130.162619 272.940381,127.740202 270.919954,127.415984 C269.559481,127.218391 270.583702,125.330359 270.088567,124.562072 C269.646999,122.385601 268.717725,121.584185 268.726744,121.405291 C268.446182,119.166833 268.634485,119.685846 268.184727,118.042966 C268.160625,118.01774 268.124422,118.002631 268.088261,118.000109 L268.088317,118.000109 Z M183.090054,120.001506 C183.08388,119.999128 183.077705,119.99981 183.071631,120.00337 C182.502218,121.368799 181.486418,122.211982 181.116392,122.909987 C180.612082,123.453872 179.240556,124.292786 178.570861,124.2991 C178.120296,124.427607 178.293349,124.919364 178.054274,125.292468 C177.559355,127.261319 178.753003,127.722761 177.390323,129.551149 C176.843625,130.056622 176.97923,133.776592 178.066652,133.829022 C178.679342,134.262873 179.245266,133.738128 179.775925,133.709977 C180.774293,133.500061 181.116823,131.306664 181.497834,130.479321 C181.897095,128.974277 182.767196,127.663935 183.022596,126.126348 C183.146096,123.74473 185.276643,123.501353 183.108648,120.017863 C183.102618,120.009532 183.096443,120.003997 183.090212,120.001618 L183.090054,120.001506 Z M288.333132,144.000109 C288.213637,144.000109 288.106125,144.061514 288.106125,144.135206 C288.281454,144.668851 288.162503,147.071001 287.962709,147.476082 C287.405241,148.585616 286.718724,148.682491 285.93171,149.318231 C286.41164,149.659145 287.192628,150.592422 286.051358,150.755444 C285.324949,150.970445 285.355301,149.569066 283.447227,151.05007 C282.346546,152.120745 280.719934,153.063716 279.68428,153.51884 C278.186242,154.122532 276.641478,154.98516 275.419475,155.827872 C274.953577,156.122642 274.965419,156.528066 275.443257,156.528066 C276.419631,156.753965 275.856933,157.459795 277.808594,156.540427 C278.696928,156.133353 279.423936,155.468805 279.970706,154.943763 C280.484349,154.46475 281.033811,154.194572 281.774488,154.084031 C282.515096,153.28689 283.991556,152.606383 284.892471,151.627593 C285.860114,151.153857 285.762072,152.034839 286.947321,151.062488 C287.629919,150.824974 288.886959,148.743992 289.539456,149.097308 C290.237495,148.903988 292.077194,146.702815 290.375638,147.56216 C289.688144,148.113744 289.1238,147.239988 289.467888,146.763656 C289.968768,145.692035 288.530736,146.825821 288.810928,146.235632 C289.250924,145.423878 289.014027,144.640832 288.333146,144.000109 L288.333132,144.000109 Z M260.189805,148.001785 C260.085592,148.032564 259.807873,148.470967 259.791921,148.493588 C259.485781,149.137921 258.626219,151.632332 259.377006,151.969992 C260.891173,152.280889 262.333876,150.102548 262.869628,149.220473 C263.271075,148.522331 263.110427,148.365593 262.213882,148.636304 C261.596275,148.91089 260.209461,148.86548 260.220085,148.137498 C260.240068,148.026682 260.224772,147.991547 260.189868,148.001807 L260.189805,148.001785 Z M99.5032699,172.000354 C97.4398553,172.407597 96.1851237,173.152728 95.550584,172.923466 C95.3493768,173.827296 94.9196735,172.846193 94.5567578,173.403601 C94.4350897,174.060337 95.5536646,173.676888 94.4062041,174.892742 C93.3848076,176.31451 93.9245954,175.321696 93.1110032,175.40976 C92.5425479,175.56629 92.5003203,176.486773 93.0277816,176.492736 C94.4521551,176.421081 94.1190745,177.703374 94.1120975,178.215651 C93.3867727,177.882089 92.6571997,177.056523 91.8532994,177.489544 C92.1803876,178.829196 90.1754475,177.694495 89.7835549,178.387914 C90.2779782,179.026101 90.3386048,178.833593 89.9944398,179.335783 C93.8717292,179.761893 90.143812,180.125586 92.147458,180.369532 C94.1706423,180.390467 93.0528481,181.413943 93.1076089,181.267888 C92.9345348,180.627115 89.2353835,180.382794 89.2223016,180.603393 C88.316602,182.229178 85.5301273,180.982805 84.4035415,180.923377 C83.8074034,181.069633 82.7629659,180.331815 82.2761244,180.689502 C81.676962,180.859021 80.9351089,180.673539 80.42427,180.665033 C78.6306509,180.563492 77.4186814,180.061072 76.1549473,180.049519 C75.2068232,179.976169 74.4107016,180.144322 73.5613665,180.468028 L74.0057553,180.849394 C74.8077426,181.533934 75.1448321,181.541506 76.0536966,182.154131 C76.4958067,182.589896 77.9196176,182.888156 76.0006392,182.70799 C74.9081225,183.415203 70.9912781,180.681614 70.383324,181.353998 C71.6837436,181.856231 72.3896286,182.23175 71.5505902,182.289496 C67.5746946,182.632341 63.7042978,181.329055 59.5673408,181.24339 C59.709961,182.688133 57.4368291,182.200699 55.4037982,182.486501 C54.9214017,182.679325 53.9133121,182.647643 53.9809719,182.867853 C53.1541151,183.705632 51.8671993,182.648721 50.4910739,183.335602 C48.9737207,184.528481 49.4664842,184.531872 47.2526848,184.430978 C45.4912779,184.885005 45.2386436,184.777543 42.0773389,185.821839 C45.3926718,187.520184 50.6369434,189.464804 56.5756781,191.483278 L58.2019059,191.987609 L146.507158,191.987609 L234.812411,192.000109 C240.406938,190.471598 245.976005,188.221937 251.076095,186.092396 C251.738712,185.809353 253.376952,185.378689 250.112188,185.341776 C248.290718,185.70057 243.822354,184.0502 242.377865,184.590912 C240.948147,184.310757 238.858568,185.235881 238.546995,184.861656 C238.42653,184.652423 239.101089,184.098679 240.004566,183.643316 C242.410781,183.281678 244.71628,181.587197 246.919797,181.587916 C247.587548,181.594669 250.593403,180.20852 250.835066,179.901783 C250.996662,179.599472 248.74591,178.933612 248.245002,178.91703 C247.136716,178.830605 246.4466,178.634188 245.715142,177.994205 C244.008313,177.745201 243.872712,177.228384 243.775513,177.132705 C242.984399,176.96925 241.511228,176.916949 240.558927,176.960183 C238.666701,175.548746 236.111944,175.210974 234.017161,175.089417 C232.606151,174.991726 234.536876,173.804594 233.595659,173.784952 C233.414974,173.784952 232.884766,174.277185 232.728164,174.597184 C231.854156,175.284295 230.511846,174.663782 229.330823,174.990921 C225.680286,175.032762 225.599544,175.008322 222.331474,175.49554 C220.873763,175.654641 219.3543,175.525354 218.51242,174.732534 C216.408916,175.37825 213.266039,174.768427 211.477062,174.769418 C209.350629,174.55497 209.318839,173.675422 208.71834,173.095643 C207.44355,173.410986 206.348557,174.0961 204.899286,175.1634 C204.004854,175.295431 200.939145,175.669656 200.875564,175.175469 C200.30227,174.016859 196.773633,175.414128 195.574886,175.975603 C193.713607,176.904865 191.651318,177.3926 189.816343,178.067786 C188.863211,178.292809 186.965205,176.839848 187.069437,176.578357 C185.308875,176.148339 182.095524,176.370202 179.756969,175.85225 C178.084743,175.555169 179.053166,174.580488 176.74505,174.683136 C172.781674,175.659857 170.361955,176.850466 166.70987,177.353647 C165.227683,177.831009 164.911046,178.040055 163.31253,177.353647 C162.40849,177.264032 161.362913,177.328244 160.46955,177.612293 C158.053629,178.588497 154.245125,178.879299 152.132759,178.326302 C149.557746,177.390546 146.000188,178.446077 144.772042,178.486165 C144.40454,178.716347 139.37332,178.254618 139.266414,178.3384 C139.037524,178.572246 136.616005,178.842976 134.447514,178.879888 C132.775007,179.190504 131.695122,179.804265 130.484137,180.49231 C128.749738,181.305533 128.612168,180.193045 127.749329,181.600043 C126.924132,182.474863 126.260953,182.060651 125.183178,182.461529 C125.730196,183.083695 125.504682,183.166773 124.062767,183.446009 C122.850544,183.928601 121.611961,184.3083 120.388598,184.91058 C119.894667,185.193638 119.762006,185.21838 118.665733,185.156841 C116.882523,184.723216 115.091999,185.288139 113.408661,185.140604 C113.584816,185.01353 111.774556,184.627738 110.786807,184.492359 C108.772062,184.176484 106.988008,183.657684 104.944005,183.310874 C102.883967,182.966262 101.426256,182.449416 101.823775,182.178644 C101.915718,181.972773 102.056885,180.927472 101.980251,180.923133 C101.119676,180.038628 99.0196749,179.143318 98.9807107,177.637079 C98.9978564,177.241143 99.5336225,177.378045 99.4816609,177.046322 C98.8031915,176.286463 98.6219588,176.334224 98.0361876,175.49554 C97.4280226,174.161462 99.2566532,173.80639 99.5119039,173.341716 C98.6418629,171.890507 102.401162,172.811292 99.5035484,172.000109 L99.5032699,172.000354 Z" id="world" fill-opacity="0.15" fill="#000000" fill-rule="nonzero"></path>
            <mask id="mask-2" fill="white">
                <use xlink:href="#path-1"></use>
            </mask>
            <use id="location" fill-opacity="0.6" fill="#000000" fill-rule="nonzero" xlink:href="#path-1"></use>
            <mask id="mask-4" fill="white">
                <use xlink:href="#path-3"></use>
            </mask>
            <use id="location-copy" fill-opacity="0.6" fill="#000000" fill-rule="nonzero" xlink:href="#path-3"></use>
            <mask id="mask-6" fill="white">
                <use xlink:href="#path-5"></use>
            </mask>
            <use id="location-copy-2" fill-opacity="0.6" fill="#000000" fill-rule="nonzero" xlink:href="#path-5"></use>
        </g>
    </g>
</svg>